<svg xmlns="http://www.w3.org/2000/svg" viewBox="0 0 400 400" width="400" height="400"><g><circle cx="199.7" cy="14.0" r="3.7" fill="#5b7794" opacity="0.89"></circle><circle cx="200.9" cy="29.0" r="4.5" fill="#5b7794" opacity="0.97"></circle><circle cx="200.4" cy="46.0" r="3.7" fill="#5b7794" opacity="0.89"></circle><circle cx="183.1" cy="62.5" r="3.3" fill="#5b7794" opacity="0.91"></circle><circle cx="201.4" cy="64.5" r="4.6" fill="#5b7794" opacity="0.89"></circle><circle cx="217.8" cy="63.4" r="4.6" fill="#5b7794" opacity="0.87"></circle><circle cx="184.0" cy="80.5" r="5.6" fill="#c9a294" opacity="0.91"></circle><circle cx="199.0" cy="82.3" r="4.4" fill="#c9a294" opacity="0.92"></circle><circle cx="217.3" cy="82.4" r="5.1" fill="#c9a294" opacity="0.87"></circle><circle cx="182.7" cy="96.8" r="4.7" fill="#c9a294" opacity="0.86"></circle><circle cx="198.6" cy="96.6" r="5.7" fill="#c9a294" opacity="0.97"></circle><circle cx="216.5" cy="97.5" r="5.3" fill="#c9a294" opacity="0.97"></circle><circle cx="46.8" cy="114.8" r="3.5" fill="#5b7794" opacity="0.89"></circle><circle cx="64.1" cy="116.6" r="3.1" fill="#5b7794" opacity="1.00"></circle><circle cx="81.2" cy="116.7" r="4.8" fill="#5b7794" opacity="0.90"></circle><circle cx="167.7" cy="115.5" r="4.0" fill="#c9a294" opacity="0.88"></circle><circle cx="184.5" cy="113.5" r="4.3" fill="#c9a294" opacity="0.90"></circle><circle cx="199.1" cy="114.7" r="5.2" fill="#c9a294" opacity="0.91"></circle><circle cx="217.1" cy="114.8" r="5.7" fill="#c9a294" opacity="0.88"></circle><circle cx="234.5" cy="116.0" r="3.9" fill="#c9a294" opacity="0.86"></circle><circle cx="337.1" cy="115.1" r="4.0" fill="#5b7794" opacity="0.88"></circle><circle cx="351.3" cy="115.2" r="4.5" fill="#5b7794" opacity="0.87"></circle><circle cx="64.0" cy="133.2" r="4.6" fill="#5b7794" opacity="0.94"></circle><circle cx="81.6" cy="130.5" r="3.7" fill="#5b7794" opacity="0.97"></circle><circle cx="98.1" cy="130.3" r="5.0" fill="#c9a294" opacity="0.96"></circle><circle cx="116.4" cy="132.9" r="4.0" fill="#c9a294" opacity="0.89"></circle><circle cx="132.5" cy="133.0" r="4.8" fill="#c9a294" opacity="0.89"></circle><circle cx="150.3" cy="132.6" r="4.8" fill="#c9a294" opacity="0.99"></circle><circle cx="166.1" cy="130.9" r="5.3" fill="#c9a294" opacity="0.90"></circle><circle cx="184.1" cy="133.6" r="5.5" fill="#c9a294" opacity="1.00"></circle><circle cx="201.6" cy="130.9" r="5.8" fill="#c9a294" opacity="0.98"></circle><circle cx="217.9" cy="131.4" r="4.2" fill="#c9a294" opacity="0.95"></circle><circle cx="232.5" cy="132.9" r="5.2" fill="#c9a294" opacity="0.90"></circle><circle cx="250.2" cy="133.6" r="4.7" fill="#c9a294" opacity="0.94"></circle><circle cx="269.2" cy="131.7" r="5.3" fill="#c9a294" opacity="0.86"></circle><circle cx="284.4" cy="131.6" r="5.6" fill="#c9a294" opacity="0.86"></circle><circle cx="300.4" cy="131.7" r="4.7" fill="#c9a294" opacity="0.97"></circle><circle cx="319.3" cy="133.6" r="3.3" fill="#5b7794" opacity="0.95"></circle><circle cx="337.5" cy="132.4" r="3.3" fill="#5b7794" opacity="0.91"></circle><circle cx="80.8" cy="149.2" r="3.6" fill="#5b7794" opacity="0.88"></circle><circle cx="99.6" cy="148.5" r="5.4" fill="#c9a294" opacity="0.92"></circle><circle cx="113.7" cy="148.8" r="4.5" fill="#c9a294" opacity="0.96"></circle><circle cx="132.3" cy="147.9" r="5.5" fill="#c9a294" opacity="0.86"></circle><circle cx="147.9" cy="150.6" r="5.3" fill="#c9a294" opacity="0.88"></circle><circle cx="165.5" cy="150.0" r="6.0" fill="#a8544a" opacity="0.94"></circle><circle cx="183.0" cy="147.7" r="4.8" fill="#a8544a" opacity="0.90"></circle><circle cx="201.0" cy="150.4" r="6.3" fill="#a8544a" opacity="0.96"></circle><circle cx="215.5" cy="150.1" r="4.7" fill="#a8544a" opacity="0.96"></circle><circle cx="232.3" cy="149.4" r="6.7" fill="#a8544a" opacity="0.86"></circle><circle cx="251.3" cy="148.6" r="4.0" fill="#c9a294" opacity="0.97"></circle><circle cx="269.3" cy="149.5" r="4.7" fill="#c9a294" opacity="0.97"></circle><circle cx="286.4" cy="148.6" r="5.0" fill="#c9a294" opacity="0.99"></circle><circle cx="302.2" cy="150.0" r="4.8" fill="#c9a294" opacity="0.89"></circle><circle cx="320.2" cy="147.6" r="3.5" fill="#5b7794" opacity="0.86"></circle><circle cx="99.3" cy="165.4" r="5.6" fill="#c9a294" opacity="0.90"></circle><circle cx="115.0" cy="166.3" r="5.8" fill="#c9a294" opacity="0.94"></circle><circle cx="131.7" cy="165.8" r="4.6" fill="#c9a294" opacity="0.87"></circle><circle cx="147.7" cy="165.8" r="5.8" fill="#c9a294" opacity="0.95"></circle><circle cx="165.2" cy="165.1" r="6.0" fill="#a8544a" opacity="0.95"></circle><circle cx="184.5" cy="166.0" r="5.2" fill="#a8544a" opacity="0.97"></circle><circle cx="198.4" cy="164.8" r="4.9" fill="#a8544a" opacity="0.86"></circle><circle cx="216.0" cy="166.5" r="5.7" fill="#a8544a" opacity="0.85"></circle><circle cx="235.1" cy="164.4" r="5.5" fill="#a8544a" opacity="0.95"></circle><circle cx="249.6" cy="164.5" r="4.1" fill="#c9a294" opacity="0.92"></circle><circle cx="266.5" cy="165.4" r="5.6" fill="#c9a294" opacity="0.97"></circle><circle cx="285.7" cy="165.6" r="5.8" fill="#c9a294" opacity="0.85"></circle><circle cx="303.4" cy="167.1" r="4.4" fill="#c9a294" opacity="0.97"></circle><circle cx="115.9" cy="183.9" r="5.3" fill="#c9a294" opacity="0.88"></circle><circle cx="130.3" cy="181.6" r="4.8" fill="#c9a294" opacity="0.97"></circle><circle cx="148.6" cy="183.0" r="6.7" fill="#a8544a" opacity="0.87"></circle><circle cx="167.3" cy="182.6" r="5.7" fill="#a8544a" opacity="0.87"></circle><circle cx="181.3" cy="184.3" r="5.3" fill="#a8544a" opacity="0.96"></circle><circle cx="200.8" cy="183.8" r="5.5" fill="#a8544a" opacity="0.89"></circle><circle cx="217.1" cy="182.4" r="5.6" fill="#a8544a" opacity="0.90"></circle><circle cx="232.9" cy="181.4" r="5.3" fill="#a8544a" opacity="0.99"></circle><circle cx="252.6" cy="182.8" r="6.6" fill="#a8544a" opacity="0.90"></circle><circle cx="268.7" cy="181.5" r="4.0" fill="#c9a294" opacity="0.97"></circle><circle cx="285.6" cy="182.0" r="5.3" fill="#c9a294" opacity="0.85"></circle><circle cx="131.6" cy="199.5" r="4.8" fill="#c9a294" opacity="0.89"></circle><circle cx="147.4" cy="200.4" r="6.6" fill="#a8544a" opacity="0.89"></circle><circle cx="164.6" cy="201.3" r="4.6" fill="#a8544a" opacity="0.89"></circle><circle cx="183.9" cy="198.4" r="6.8" fill="#a8544a" opacity="0.92"></circle><circle cx="198.8" cy="201.7" r="5.4" fill="#a8544a" opacity="0.93"></circle><circle cx="216.1" cy="199.0" r="6.6" fill="#a8544a" opacity="0.94"></circle><circle cx="234.7" cy="199.5" r="6.1" fill="#a8544a" opacity="0.88"></circle><circle cx="252.4" cy="199.9" r="5.2" fill="#a8544a" opacity="0.87"></circle><circle cx="268.2" cy="201.3" r="5.3" fill="#c9a294" opacity="0.86"></circle><circle cx="114.2" cy="216.8" r="5.4" fill="#c9a294" opacity="0.95"></circle><circle cx="132.4" cy="218.4" r="4.8" fill="#c9a294" opacity="0.98"></circle><circle cx="150.5" cy="215.9" r="5.7" fill="#a8544a" opacity="0.95"></circle><circle cx="167.7" cy="215.9" r="6.2" fill="#a8544a" opacity="0.94"></circle><circle cx="182.5" cy="216.9" r="4.6" fill="#a8544a" opacity="0.95"></circle><circle cx="198.7" cy="217.7" r="5.9" fill="#a8544a" opacity="0.86"></circle><circle cx="216.9" cy="215.8" r="6.1" fill="#a8544a" opacity="0.93"></circle><circle cx="233.2" cy="218.3" r="5.5" fill="#a8544a" opacity="0.92"></circle><circle cx="249.7" cy="218.7" r="5.0" fill="#a8544a" opacity="0.87"></circle><circle cx="269.6" cy="217.9" r="5.5" fill="#c9a294" opacity="0.93"></circle><circle cx="284.9" cy="217.0" r="4.2" fill="#c9a294" opacity="0.85"></circle><circle cx="97.5" cy="233.3" r="4.4" fill="#c9a294" opacity="0.95"></circle><circle cx="114.9" cy="232.5" r="4.1" fill="#c9a294" opacity="0.94"></circle><circle cx="131.1" cy="232.9" r="5.2" fill="#c9a294" opacity="0.99"></circle><circle cx="147.5" cy="234.1" r="4.8" fill="#c9a294" opacity="0.88"></circle><circle cx="165.9" cy="235.4" r="6.3" fill="#a8544a" opacity="0.89"></circle><circle cx="183.9" cy="234.7" r="5.9" fill="#a8544a" opacity="0.94"></circle><circle cx="200.3" cy="235.2" r="5.3" fill="#a8544a" opacity="0.92"></circle><circle cx="216.3" cy="235.4" r="5.1" fill="#a8544a" opacity="0.98"></circle><circle cx="234.9" cy="233.9" r="6.1" fill="#a8544a" opacity="0.99"></circle><circle cx="251.9" cy="232.4" r="5.8" fill="#c9a294" opacity="0.93"></circle><circle cx="266.7" cy="233.7" r="4.0" fill="#c9a294" opacity="0.92"></circle><circle cx="286.3" cy="232.7" r="5.4" fill="#c9a294" opacity="0.85"></circle><circle cx="302.5" cy="235.1" r="4.9" fill="#c9a294" opacity="0.91"></circle><circle cx="80.3" cy="249.8" r="4.6" fill="#5b7794" opacity="0.98"></circle><circle cx="96.4" cy="252.6" r="4.1" fill="#c9a294" opacity="0.90"></circle><circle cx="114.9" cy="251.2" r="5.0" fill="#c9a294" opacity="0.94"></circle><circle cx="132.7" cy="250.0" r="3.9" fill="#c9a294" opacity="0.98"></circle><circle cx="149.7" cy="251.6" r="4.8" fill="#c9a294" opacity="0.90"></circle><circle cx="166.4" cy="250.9" r="5.0" fill="#c9a294" opacity="1.00"></circle><circle cx="182.3" cy="251.0" r="5.9" fill="#a8544a" opacity="0.88"></circle><circle cx="201.2" cy="250.2" r="6.6" fill="#a8544a" opacity="0.99"></circle><circle cx="215.5" cy="249.9" r="6.5" fill="#a8544a" opacity="0.89"></circle><circle cx="233.4" cy="251.9" r="5.1" fill="#c9a294" opacity="0.98"></circle><circle cx="252.2" cy="249.7" r="4.3" fill="#c9a294" opacity="0.94"></circle><circle cx="267.9" cy="251.6" r="4.2" fill="#c9a294" opacity="0.99"></circle><circle cx="285.5" cy="250.6" r="5.1" fill="#c9a294" opacity="0.91"></circle><circle cx="303.5" cy="250.0" r="4.7" fill="#c9a294" opacity="0.93"></circle><circle cx="318.3" cy="250.5" r="5.9" fill="#c9a294" opacity="0.88"></circle><circle cx="64.1" cy="267.3" r="3.7" fill="#5b7794" opacity="0.86"></circle><circle cx="81.4" cy="266.4" r="3.2" fill="#5b7794" opacity="0.94"></circle><circle cx="98.9" cy="266.6" r="5.4" fill="#c9a294" opacity="0.97"></circle><circle cx="114.1" cy="268.3" r="4.2" fill="#c9a294" opacity="0.92"></circle><circle cx="133.0" cy="268.5" r="4.3" fill="#c9a294" opacity="0.90"></circle><circle cx="147.7" cy="266.7" r="4.7" fill="#c9a294" opacity="1.00"></circle><circle cx="167.1" cy="269.5" r="5.9" fill="#c9a294" opacity="0.99"></circle><circle cx="182.9" cy="268.1" r="4.8" fill="#c9a294" opacity="0.89"></circle><circle cx="199.4" cy="267.9" r="5.4" fill="#c9a294" opacity="1.00"></circle><circle cx="217.8" cy="267.2" r="4.3" fill="#c9a294" opacity="0.87"></circle><circle cx="232.7" cy="267.7" r="4.3" fill="#c9a294" opacity="0.89"></circle><circle cx="250.9" cy="266.7" r="5.1" fill="#c9a294" opacity="0.89"></circle><circle cx="269.5" cy="268.7" r="4.3" fill="#c9a294" opacity="0.86"></circle><circle cx="284.8" cy="267.7" r="4.7" fill="#c9a294" opacity="0.97"></circle><circle cx="302.8" cy="267.9" r="4.6" fill="#c9a294" opacity="0.96"></circle><circle cx="318.4" cy="267.5" r="3.9" fill="#5b7794" opacity="0.97"></circle><circle cx="337.6" cy="266.4" r="3.0" fill="#5b7794" opacity="0.90"></circle><circle cx="46.1" cy="284.7" r="4.0" fill="#5b7794" opacity="0.91"></circle><circle cx="64.6" cy="284.5" r="3.0" fill="#5b7794" opacity="0.91"></circle><circle cx="81.8" cy="283.7" r="3.4" fill="#5b7794" opacity="0.86"></circle><circle cx="166.4" cy="285.0" r="3.9" fill="#c9a294" opacity="0.88"></circle><circle cx="184.6" cy="285.2" r="4.3" fill="#c9a294" opacity="0.88"></circle><circle cx="199.9" cy="286.2" r="5.7" fill="#c9a294" opacity="0.86"></circle><circle cx="217.0" cy="285.2" r="5.3" fill="#c9a294" opacity="0.95"></circle><circle cx="232.6" cy="286.5" r="5.7" fill="#c9a294" opacity="0.87"></circle><circle cx="317.4" cy="285.8" r="3.4" fill="#5b7794" opacity="0.91"></circle><circle cx="334.6" cy="284.6" r="3.7" fill="#5b7794" opacity="0.96"></circle><circle cx="354.3" cy="284.3" r="4.0" fill="#5b7794" opacity="0.86"></circle><circle cx="183.3" cy="301.2" r="4.9" fill="#c9a294" opacity="0.96"></circle><circle cx="199.0" cy="303.5" r="4.7" fill="#c9a294" opacity="0.92"></circle><circle cx="216.4" cy="303.2" r="4.3" fill="#c9a294" opacity="0.94"></circle><circle cx="184.0" cy="320.5" r="5.5" fill="#c9a294" opacity="0.87"></circle><circle cx="198.8" cy="318.8" r="5.6" fill="#c9a294" opacity="0.90"></circle><circle cx="215.8" cy="319.8" r="4.4" fill="#c9a294" opacity="0.96"></circle><circle cx="183.2" cy="335.6" r="3.5" fill="#5b7794" opacity="0.93"></circle><circle cx="200.1" cy="335.3" r="4.2" fill="#5b7794" opacity="0.89"></circle><circle cx="216.4" cy="336.5" r="3.3" fill="#5b7794" opacity="0.87"></circle><circle cx="201.3" cy="353.1" r="4.2" fill="#5b7794" opacity="1.00"></circle><circle cx="201.0" cy="370.5" r="4.1" fill="#5b7794" opacity="0.86"></circle><circle cx="201.4" cy="386.0" r="4.1" fill="#5b7794" opacity="0.88"></circle></g></svg>