<svg width="520" height="520" viewBox="0 0 520 520" fill="none" xmlns="http://www.w3.org/2000/svg">
<g clip-path="url(#clip0_9991_56944)">
<path opacity="0.75" d="M260 482C382.607 482 482 382.607 482 260C482 137.393 382.607 38 260 38C137.393 38 38 137.393 38 260C38 382.607 137.393 482 260 482Z" stroke="#A99CD0" stroke-width="2" stroke-dasharray="2 7"></path>
<path opacity="0.55" d="M260 438C358.307 438 438 358.307 438 260C438 161.693 358.307 82 260 82C161.693 82 82 161.693 82 260C82 358.307 161.693 438 260 438Z" stroke="#A99CD0" stroke-width="1.6" stroke-dasharray="2 7"></path>
<path opacity="0.9" d="M260 392C332.902 392 392 332.902 392 260C392 187.098 332.902 128 260 128C187.098 128 128 187.098 128 260C128 332.902 187.098 392 260 392Z" stroke="#DED8EF" stroke-width="1.2"></path>
<path d="M260 367C319.094 367 367 319.094 367 260C367 200.906 319.094 153 260 153C200.906 153 153 200.906 153 260C153 319.094 200.906 367 260 367Z" stroke="#E9E6F4" stroke-width="1.2"></path>
<path d="M260 392C332.902 392 392 332.902 392 260C392 187.098 332.902 128 260 128C187.098 128 128 187.098 128 260C128 332.902 187.098 392 260 392Z" fill="url(#paint0_radial_9991_56944)"></path>
<g filter="url(#filter0_f_9991_56944)">
<path opacity="0.22" d="M260 352C307.496 352 346 313.496 346 266C346 218.504 307.496 180 260 180C212.504 180 174 218.504 174 266C174 313.496 212.504 352 260 352Z" fill="#4B0082"></path>
</g>
<path opacity="0.85" d="M260 354C311.915 354 354 311.915 354 260C354 208.085 311.915 166 260 166C208.085 166 166 208.085 166 260C166 311.915 208.085 354 260 354Z" fill="#F2F0F9"></path>
<path d="M260 354C311.915 354 354 311.915 354 260C354 208.085 311.915 166 260 166C208.085 166 166 208.085 166 260C166 311.915 208.085 354 260 354Z" stroke="#DED8EF" stroke-width="1.2"></path>
<path d="M260 338C303.078 338 338 303.078 338 260C338 216.922 303.078 182 260 182C216.922 182 182 216.922 182 260C182 303.078 216.922 338 260 338Z" fill="url(#paint1_radial_9991_56944)"></path>
<path d="M246.16 235.086C246.72 233.815 248.16 230.955 251.36 228.651C254.96 226.109 258.64 225.87 260 225.87C260 221.58 260 217.29 260 213C258.24 213 248.24 213 240.24 220.786C232.08 228.73 232 238.741 232 240.489V250.896C233.04 248.592 234.88 245.335 237.76 242.078C240.8 238.661 243.92 236.437 246.24 235.086H246.16Z" fill="white"></path>
<path d="M262.32 234.844V248.111C269.36 249.224 274.64 255.182 274.64 262.412C274.64 270.436 268.08 276.871 259.92 276.871C254.72 276.871 250.16 274.249 247.6 270.198V287.199C251.36 289.027 255.52 290.059 259.92 290.059C275.36 290.059 288 277.666 288 262.412C288 247.158 276.64 236.035 262.32 234.844Z" fill="white"></path>
<path d="M260 247.876V234.688C254.64 234.688 249.68 236.197 245.44 238.739C237.36 243.586 232 252.325 232 262.335V307.064C239.36 307.064 245.36 301.105 245.36 293.796V262.335C245.36 254.311 251.92 247.876 260.08 247.876H260Z" fill="white"></path>
<path opacity="0.1" d="M182 260C182 239.313 190.218 219.474 204.846 204.846C219.474 190.218 239.313 182 260 182C277.404 182.023 294.3 187.867 308 198.6C296.486 189.611 282.68 184.036 268.153 182.509C253.626 180.982 238.962 183.565 225.831 189.964C212.701 196.363 201.63 206.32 193.881 218.702C186.132 231.084 182.015 245.393 182 260Z" fill="white"></path>
<g filter="url(#filter1_f_9991_56944)">
<path opacity="0.1" d="M261 30H173C163.611 30 156 37.6112 156 47C156 56.3888 163.611 64 173 64H261C270.389 64 278 56.3888 278 47C278 37.6112 270.389 30 261 30Z" fill="#414042"></path>
</g>
<path d="M260.4 27.6016H173.6C164.211 27.6016 156.6 34.9441 156.6 44.0016C156.6 53.059 164.211 60.4016 173.6 60.4016H260.4C269.788 60.4016 277.4 53.059 277.4 44.0016C277.4 34.9441 269.788 27.6016 260.4 27.6016Z" fill="white" stroke="#EDEAF7" stroke-width="1.2"></path>
<path d="M170 42.4016L176 38.6016L182 42.4016M171.6 43.6016V48.8016M174.6 43.6016V48.8016M177.4 43.6016V48.8016M180.4 43.6016V48.8016M170.4 50.2016H181.6" stroke="#4B0082" stroke-width="1.25" stroke-linecap="round" stroke-linejoin="round"></path>
<path d="M198.652 45.061H199.871C199.808 45.645 199.64 46.1676 199.37 46.6289C199.099 47.0902 198.716 47.4562 198.221 47.7271C197.726 47.9937 197.108 48.127 196.367 48.127C195.826 48.127 195.333 48.0254 194.888 47.8223C194.448 47.6191 194.069 47.3314 193.752 46.959C193.435 46.5824 193.189 46.1317 193.016 45.6069C192.846 45.078 192.762 44.4897 192.762 43.8423V42.9219C192.762 42.2744 192.846 41.6883 193.016 41.1636C193.189 40.6346 193.437 40.1818 193.758 39.8052C194.084 39.4285 194.476 39.1387 194.933 38.9355C195.39 38.7324 195.904 38.6309 196.475 38.6309C197.173 38.6309 197.764 38.762 198.246 39.0244C198.729 39.2868 199.103 39.6507 199.37 40.1162C199.64 40.5775 199.808 41.1128 199.871 41.7222H198.652C198.593 41.2905 198.483 40.9202 198.322 40.6113C198.161 40.2982 197.933 40.057 197.637 39.8877C197.34 39.7184 196.953 39.6338 196.475 39.6338C196.065 39.6338 195.703 39.7121 195.39 39.8687C195.081 40.0252 194.82 40.2474 194.609 40.5352C194.402 40.8229 194.245 41.1678 194.139 41.5698C194.033 41.9718 193.98 42.4183 193.98 42.9092V43.8423C193.98 44.2951 194.027 44.7204 194.12 45.1182C194.217 45.516 194.363 45.8651 194.558 46.1655C194.753 46.466 195 46.703 195.301 46.8765C195.601 47.0457 195.957 47.1304 196.367 47.1304C196.888 47.1304 197.302 47.0479 197.611 46.8828C197.92 46.7178 198.153 46.4808 198.31 46.1719C198.47 45.863 198.585 45.4927 198.652 45.061ZM201.052 44.6421V44.4961C201.052 44.001 201.124 43.5418 201.268 43.1187C201.411 42.6912 201.619 42.321 201.89 42.0078C202.16 41.6904 202.488 41.445 202.874 41.2715C203.259 41.0938 203.69 41.0049 204.168 41.0049C204.651 41.0049 205.085 41.0938 205.47 41.2715C205.859 41.445 206.189 41.6904 206.46 42.0078C206.735 42.321 206.944 42.6912 207.088 43.1187C207.232 43.5418 207.304 44.001 207.304 44.4961V44.6421C207.304 45.1372 207.232 45.5964 207.088 46.0195C206.944 46.4427 206.735 46.813 206.46 47.1304C206.189 47.4435 205.861 47.689 205.476 47.8667C205.095 48.0402 204.664 48.127 204.181 48.127C203.699 48.127 203.265 48.0402 202.88 47.8667C202.495 47.689 202.165 47.4435 201.89 47.1304C201.619 46.813 201.411 46.4427 201.268 46.0195C201.124 45.5964 201.052 45.1372 201.052 44.6421ZM202.226 44.4961V44.6421C202.226 44.9849 202.266 45.3086 202.347 45.6133C202.427 45.9137 202.548 46.1803 202.708 46.4131C202.874 46.6458 203.079 46.8299 203.324 46.9653C203.57 47.0965 203.855 47.1621 204.181 47.1621C204.503 47.1621 204.784 47.0965 205.025 46.9653C205.271 46.8299 205.474 46.6458 205.635 46.4131C205.796 46.1803 205.916 45.9137 205.997 45.6133C206.081 45.3086 206.124 44.9849 206.124 44.6421V44.4961C206.124 44.1576 206.081 43.8381 205.997 43.5376C205.916 43.2329 205.793 42.9642 205.628 42.7314C205.468 42.4945 205.264 42.3083 205.019 42.1729C204.778 42.0374 204.494 41.9697 204.168 41.9697C203.847 41.9697 203.563 42.0374 203.318 42.1729C203.077 42.3083 202.874 42.4945 202.708 42.7314C202.548 42.9642 202.427 43.2329 202.347 43.5376C202.266 43.8381 202.226 44.1576 202.226 44.4961ZM209.951 42.2109V48H208.777V41.1318H209.919L209.951 42.2109ZM212.097 41.0938L212.09 42.1855C211.993 42.1644 211.9 42.1517 211.811 42.1475C211.726 42.139 211.629 42.1348 211.519 42.1348C211.248 42.1348 211.009 42.1771 210.802 42.2617C210.594 42.3464 210.419 42.4648 210.275 42.6172C210.131 42.7695 210.017 42.9515 209.932 43.1631C209.852 43.3704 209.799 43.599 209.773 43.8486L209.443 44.0391C209.443 43.6243 209.484 43.235 209.564 42.8711C209.649 42.5072 209.778 42.1855 209.951 41.9062C210.125 41.6227 210.345 41.4027 210.611 41.2461C210.882 41.0853 211.204 41.0049 211.576 41.0049C211.661 41.0049 211.758 41.0155 211.868 41.0366C211.978 41.0535 212.054 41.0726 212.097 41.0938ZM215.918 48.127C215.44 48.127 215.006 48.0465 214.617 47.8857C214.232 47.7207 213.899 47.4901 213.62 47.1938C213.345 46.8976 213.133 46.5464 212.985 46.1401C212.837 45.7339 212.763 45.2896 212.763 44.8071V44.5405C212.763 43.9819 212.846 43.4847 213.011 43.0488C213.176 42.6087 213.4 42.2363 213.684 41.9316C213.967 41.627 214.289 41.3963 214.648 41.2397C215.008 41.0832 215.381 41.0049 215.766 41.0049C216.257 41.0049 216.68 41.0895 217.035 41.2588C217.395 41.4281 217.689 41.665 217.917 41.9697C218.146 42.2702 218.315 42.6257 218.425 43.0361C218.535 43.4424 218.59 43.8867 218.59 44.3691V44.896H213.461V43.9375H217.416V43.8486C217.399 43.5439 217.336 43.2477 217.226 42.96C217.12 42.6722 216.951 42.4352 216.718 42.249C216.485 42.0628 216.168 41.9697 215.766 41.9697C215.499 41.9697 215.254 42.0269 215.029 42.1411C214.805 42.2511 214.612 42.4162 214.452 42.6362C214.291 42.8563 214.166 43.125 214.077 43.4424C213.988 43.7598 213.944 44.1258 213.944 44.5405V44.8071C213.944 45.133 213.988 45.4398 214.077 45.7275C214.17 46.0111 214.304 46.2607 214.477 46.4766C214.655 46.6924 214.868 46.8617 215.118 46.9844C215.372 47.1071 215.66 47.1685 215.981 47.1685C216.396 47.1685 216.747 47.0838 217.035 46.9146C217.323 46.7453 217.575 46.5189 217.791 46.2354L218.501 46.8003C218.353 47.0246 218.165 47.2383 217.937 47.4414C217.708 47.6445 217.427 47.8096 217.092 47.9365C216.762 48.0635 216.371 48.127 215.918 48.127ZM226.658 43.6772H224.316L224.303 42.6934H226.43C226.781 42.6934 227.088 42.6341 227.35 42.5156C227.612 42.3971 227.816 42.2279 227.959 42.0078C228.108 41.7835 228.182 41.5169 228.182 41.208C228.182 40.8695 228.116 40.5944 227.985 40.3828C227.858 40.167 227.661 40.0104 227.395 39.9131C227.132 39.8115 226.798 39.7607 226.392 39.7607H224.589V48H223.364V38.7578H226.392C226.866 38.7578 227.289 38.8065 227.661 38.9038C228.034 38.9969 228.349 39.145 228.607 39.3481C228.869 39.547 229.068 39.8009 229.204 40.1099C229.339 40.4188 229.407 40.7891 229.407 41.2207C229.407 41.6016 229.309 41.9465 229.115 42.2554C228.92 42.5601 228.649 42.8097 228.302 43.0044C227.959 43.1991 227.557 43.3239 227.096 43.3789L226.658 43.6772ZM226.601 48H223.833L224.525 47.0034H226.601C226.99 47.0034 227.32 46.9357 227.591 46.8003C227.866 46.6649 228.076 46.4744 228.22 46.229C228.364 45.9793 228.436 45.6852 228.436 45.3467C228.436 45.0039 228.374 44.7077 228.251 44.458C228.129 44.2083 227.936 44.0158 227.674 43.8804C227.411 43.745 227.073 43.6772 226.658 43.6772H224.913L224.925 42.6934H227.312L227.572 43.0488C228.017 43.0869 228.393 43.2139 228.702 43.4297C229.011 43.6413 229.246 43.9121 229.407 44.2422C229.572 44.5723 229.654 44.9362 229.654 45.334C229.654 45.9095 229.527 46.3962 229.273 46.7939C229.024 47.1875 228.67 47.488 228.213 47.6953C227.756 47.8984 227.219 48 226.601 48ZM235.335 46.8257V43.29C235.335 43.0192 235.28 42.7843 235.17 42.5854C235.065 42.3823 234.904 42.2257 234.688 42.1157C234.472 42.0057 234.206 41.9507 233.888 41.9507C233.592 41.9507 233.332 42.0015 233.107 42.103C232.887 42.2046 232.714 42.3379 232.587 42.5029C232.464 42.668 232.403 42.8457 232.403 43.0361H231.229C231.229 42.7907 231.292 42.5474 231.419 42.3062C231.546 42.0649 231.728 41.847 231.965 41.6523C232.206 41.4535 232.494 41.2969 232.828 41.1826C233.167 41.0641 233.543 41.0049 233.958 41.0049C234.457 41.0049 234.897 41.0895 235.278 41.2588C235.663 41.4281 235.964 41.6841 236.18 42.0269C236.4 42.3654 236.51 42.7907 236.51 43.3027V46.502C236.51 46.7305 236.529 46.9738 236.567 47.2319C236.609 47.4901 236.671 47.7122 236.751 47.8984V48H235.526C235.467 47.8646 235.42 47.6847 235.386 47.4604C235.352 47.2319 235.335 47.0203 235.335 46.8257ZM235.539 43.8359L235.551 44.6611H234.364C234.03 44.6611 233.732 44.6886 233.469 44.7437C233.207 44.7944 232.987 44.8727 232.809 44.9785C232.631 45.0843 232.496 45.2176 232.403 45.3784C232.31 45.535 232.263 45.7191 232.263 45.9307C232.263 46.1465 232.312 46.3433 232.409 46.521C232.507 46.6987 232.653 46.8405 232.847 46.9463C233.046 47.0479 233.289 47.0986 233.577 47.0986C233.937 47.0986 234.254 47.0225 234.529 46.8701C234.804 46.7178 235.022 46.5316 235.183 46.3115C235.348 46.0915 235.437 45.8778 235.45 45.6704L235.951 46.2354C235.922 46.4131 235.841 46.6099 235.71 46.8257C235.579 47.0415 235.403 47.2489 235.183 47.4478C234.967 47.6424 234.709 47.8053 234.409 47.9365C234.112 48.0635 233.778 48.127 233.406 48.127C232.94 48.127 232.532 48.036 232.181 47.854C231.834 47.672 231.563 47.4287 231.368 47.124C231.178 46.8151 231.083 46.4702 231.083 46.0894C231.083 45.7212 231.154 45.3975 231.298 45.1182C231.442 44.8346 231.65 44.5998 231.92 44.4136C232.191 44.2231 232.517 44.0793 232.898 43.9819C233.279 43.8846 233.704 43.8359 234.174 43.8359H235.539ZM239.531 42.5981V48H238.357V41.1318H239.468L239.531 42.5981ZM239.252 44.3057L238.763 44.2866C238.767 43.8169 238.837 43.3831 238.973 42.9854C239.108 42.5833 239.299 42.2342 239.544 41.938C239.789 41.6418 240.081 41.4132 240.42 41.2524C240.763 41.0874 241.141 41.0049 241.556 41.0049C241.895 41.0049 242.199 41.0514 242.47 41.1445C242.741 41.2334 242.972 41.3773 243.162 41.5762C243.357 41.7751 243.505 42.0332 243.606 42.3506C243.708 42.6637 243.759 43.0467 243.759 43.4995V48H242.578V43.4868C242.578 43.1271 242.525 42.8394 242.419 42.6235C242.314 42.4035 242.159 42.2448 241.956 42.1475C241.753 42.0459 241.503 41.9951 241.207 41.9951C240.915 41.9951 240.648 42.0565 240.407 42.1792C240.17 42.3019 239.965 42.4712 239.792 42.687C239.622 42.9028 239.489 43.1504 239.392 43.4297C239.299 43.7048 239.252 43.9967 239.252 44.3057ZM246.723 38.25V48H245.542V38.25H246.723ZM250.919 41.1318L247.923 44.3374L246.247 46.0767L246.152 44.8262L247.352 43.3916L249.484 41.1318H250.919ZM249.846 48L247.396 44.7246L248.005 43.6772L251.23 48H249.846ZM253.407 41.1318V48H252.227V41.1318H253.407ZM252.138 39.3101C252.138 39.1196 252.195 38.9588 252.309 38.8276C252.428 38.6965 252.601 38.6309 252.83 38.6309C253.054 38.6309 253.225 38.6965 253.344 38.8276C253.466 38.9588 253.528 39.1196 253.528 39.3101C253.528 39.492 253.466 39.6486 253.344 39.7798C253.225 39.9067 253.054 39.9702 252.83 39.9702C252.601 39.9702 252.428 39.9067 252.309 39.7798C252.195 39.6486 252.138 39.492 252.138 39.3101ZM256.467 42.5981V48H255.292V41.1318H256.403L256.467 42.5981ZM256.188 44.3057L255.699 44.2866C255.703 43.8169 255.773 43.3831 255.908 42.9854C256.044 42.5833 256.234 42.2342 256.479 41.938C256.725 41.6418 257.017 41.4132 257.355 41.2524C257.698 41.0874 258.077 41.0049 258.492 41.0049C258.83 41.0049 259.135 41.0514 259.406 41.1445C259.677 41.2334 259.907 41.3773 260.098 41.5762C260.292 41.7751 260.44 42.0332 260.542 42.3506C260.644 42.6637 260.694 43.0467 260.694 43.4995V48H259.514V43.4868C259.514 43.1271 259.461 42.8394 259.355 42.6235C259.249 42.4035 259.095 42.2448 258.892 42.1475C258.688 42.0459 258.439 41.9951 258.143 41.9951C257.851 41.9951 257.584 42.0565 257.343 42.1792C257.106 42.3019 256.901 42.4712 256.727 42.687C256.558 42.9028 256.424 43.1504 256.327 43.4297C256.234 43.7048 256.188 43.9967 256.188 44.3057ZM266.928 41.1318H267.994V47.854C267.994 48.4591 267.871 48.9754 267.626 49.4028C267.381 49.8302 267.038 50.154 266.598 50.374C266.162 50.5983 265.658 50.7104 265.087 50.7104C264.85 50.7104 264.571 50.6724 264.249 50.5962C263.932 50.5243 263.618 50.3994 263.31 50.2217C263.005 50.0482 262.749 49.8133 262.542 49.5171L263.157 48.8188C263.445 49.1659 263.745 49.4071 264.059 49.5425C264.376 49.6779 264.689 49.7456 264.998 49.7456C265.37 49.7456 265.692 49.6758 265.963 49.5361C266.234 49.3965 266.443 49.1891 266.591 48.9141C266.744 48.6432 266.82 48.3089 266.82 47.9111V42.6426L266.928 41.1318ZM262.199 44.6421V44.5088C262.199 43.984 262.26 43.508 262.383 43.0806C262.51 42.6489 262.69 42.2786 262.922 41.9697C263.159 41.6608 263.445 41.4238 263.779 41.2588C264.114 41.0895 264.49 41.0049 264.909 41.0049C265.341 41.0049 265.717 41.0811 266.039 41.2334C266.365 41.3815 266.64 41.5994 266.864 41.8872C267.093 42.1707 267.273 42.5135 267.404 42.9155C267.535 43.3175 267.626 43.7725 267.677 44.2803V44.8643C267.63 45.3678 267.539 45.8206 267.404 46.2227C267.273 46.6247 267.093 46.9674 266.864 47.251C266.64 47.5345 266.365 47.7524 266.039 47.9048C265.713 48.0529 265.332 48.127 264.896 48.127C264.486 48.127 264.114 48.0402 263.779 47.8667C263.449 47.6932 263.166 47.4499 262.929 47.1367C262.692 46.8236 262.51 46.4554 262.383 46.0322C262.26 45.6048 262.199 45.1414 262.199 44.6421ZM263.373 44.5088V44.6421C263.373 44.9849 263.407 45.3065 263.475 45.6069C263.547 45.9074 263.654 46.1719 263.798 46.4004C263.946 46.6289 264.135 46.8088 264.363 46.9399C264.592 47.0669 264.865 47.1304 265.182 47.1304C265.571 47.1304 265.893 47.0479 266.147 46.8828C266.401 46.7178 266.602 46.4998 266.75 46.229C266.902 45.9582 267.021 45.6641 267.105 45.3467V43.8169C267.059 43.5841 266.987 43.3599 266.89 43.144C266.797 42.924 266.674 42.7293 266.521 42.5601C266.373 42.3866 266.189 42.249 265.969 42.1475C265.749 42.0459 265.491 41.9951 265.195 41.9951C264.873 41.9951 264.596 42.0628 264.363 42.1982C264.135 42.3294 263.946 42.5114 263.798 42.7441C263.654 42.9727 263.547 43.2393 263.475 43.5439C263.407 43.8444 263.373 44.166 263.373 44.5088Z" fill="#414042"></path>
<g filter="url(#filter2_f_9991_56944)">
<path opacity="0.1" d="M409 89H369C359.611 89 352 96.6112 352 106C352 115.389 359.611 123 369 123H409C418.389 123 426 115.389 426 106C426 96.6112 418.389 89 409 89Z" fill="#414042"></path>
</g>
<path d="M408.4 86.6016H369.6C360.211 86.6016 352.6 93.9441 352.6 103.002C352.6 112.059 360.211 119.402 369.6 119.402H408.4C417.788 119.402 425.4 112.059 425.4 103.002C425.4 93.9441 417.788 86.6016 408.4 86.6016Z" fill="white" stroke="#EDEAF7" stroke-width="1.2"></path>
<path d="M370.2 102.603C371.415 102.603 372.4 101.618 372.4 100.403C372.4 99.1881 371.415 98.2031 370.2 98.2031C368.985 98.2031 368 99.1881 368 100.403C368 101.618 368.985 102.603 370.2 102.603Z" stroke="#7B49B0" stroke-width="1.25"></path>
<path d="M366.4 108.605C366.4 106.305 368.1 104.805 370.2 104.805C372.3 104.805 374 106.305 374 108.605" stroke="#7B49B0" stroke-width="1.25" stroke-linecap="round"></path>
<path d="M375 99.4062C375.442 99.507 375.836 99.7547 376.119 100.109C376.402 100.463 376.556 100.903 376.556 101.356C376.556 101.809 376.402 102.249 376.119 102.603C375.836 102.958 375.442 103.206 375 103.306M376.4 108.606C376.4 107.106 375.9 106.006 375 105.306" stroke="#7B49B0" stroke-width="1.25" stroke-linecap="round"></path>
<path d="M394.652 104.061H395.871C395.808 104.645 395.64 105.168 395.37 105.629C395.099 106.09 394.716 106.456 394.221 106.727C393.726 106.994 393.108 107.127 392.367 107.127C391.826 107.127 391.333 107.025 390.888 106.822C390.448 106.619 390.069 106.331 389.752 105.959C389.435 105.582 389.189 105.132 389.016 104.607C388.846 104.078 388.762 103.49 388.762 102.842V101.922C388.762 101.274 388.846 100.688 389.016 100.164C389.189 99.6346 389.437 99.1818 389.758 98.8052C390.084 98.4285 390.476 98.1387 390.933 97.9355C391.39 97.7324 391.904 97.6309 392.475 97.6309C393.173 97.6309 393.764 97.762 394.246 98.0244C394.729 98.2868 395.103 98.6507 395.37 99.1162C395.64 99.5775 395.808 100.113 395.871 100.722H394.652C394.593 100.291 394.483 99.9202 394.322 99.6113C394.161 99.2982 393.933 99.057 393.637 98.8877C393.34 98.7184 392.953 98.6338 392.475 98.6338C392.065 98.6338 391.703 98.7121 391.39 98.8687C391.081 99.0252 390.82 99.2474 390.609 99.5352C390.402 99.8229 390.245 100.168 390.139 100.57C390.033 100.972 389.98 101.418 389.98 101.909V102.842C389.98 103.295 390.027 103.72 390.12 104.118C390.217 104.516 390.363 104.865 390.558 105.166C390.753 105.466 391 105.703 391.301 105.876C391.601 106.046 391.957 106.13 392.367 106.13C392.888 106.13 393.302 106.048 393.611 105.883C393.92 105.718 394.153 105.481 394.31 105.172C394.47 104.863 394.585 104.493 394.652 104.061ZM397.541 97.7578H400.6C401.294 97.7578 401.88 97.8636 402.358 98.0752C402.841 98.2868 403.207 98.5999 403.457 99.0146C403.71 99.4251 403.837 99.9308 403.837 100.532C403.837 100.955 403.751 101.342 403.577 101.693C403.408 102.04 403.162 102.337 402.841 102.582C402.523 102.823 402.143 103.003 401.698 103.122L401.355 103.255H398.48L398.467 102.258H400.638C401.078 102.258 401.444 102.182 401.736 102.03C402.028 101.873 402.248 101.664 402.396 101.401C402.545 101.139 402.619 100.849 402.619 100.532C402.619 100.176 402.549 99.8652 402.409 99.5986C402.27 99.332 402.049 99.1268 401.749 98.9829C401.453 98.8348 401.07 98.7607 400.6 98.7607H398.766V107H397.541V97.7578ZM402.942 107L400.695 102.811L401.971 102.804L404.25 106.924V107H402.942ZM405.938 97.7578H407.125L410.153 105.292L413.175 97.7578H414.368L410.61 107H409.684L405.938 97.7578ZM405.551 97.7578H406.599L406.77 103.395V107H405.551V97.7578ZM413.702 97.7578H414.749V107H413.53V103.395L413.702 97.7578Z" fill="#414042"></path>
<g filter="url(#filter3_f_9991_56944)">
<path opacity="0.1" d="M110 140H32C22.6112 140 15 147.611 15 157C15 166.389 22.6112 174 32 174H110C119.389 174 127 166.389 127 157C127 147.611 119.389 140 110 140Z" fill="#414042"></path>
</g>
<path d="M109.4 137.602H32.5996C23.2108 137.602 15.5996 144.944 15.5996 154.002C15.5996 163.059 23.2108 170.402 32.5996 170.402H109.4C118.788 170.402 126.4 163.059 126.4 154.002C126.4 144.944 118.788 137.602 109.4 137.602Z" fill="white" stroke="#EDEAF7" stroke-width="1.2"></path>
<path d="M32.8004 151.203L29.4004 154.403L32.8004 157.603M37.2004 151.203L40.6004 154.403L37.2004 157.603" stroke="#7B49B0" stroke-width="1.25" stroke-linecap="round" stroke-linejoin="round"></path>
<path d="M55.4941 149.577L52.4346 158H51.1841L54.707 148.758H55.5132L55.4941 149.577ZM58.0586 158L54.9927 149.577L54.9736 148.758H55.7798L59.3154 158H58.0586ZM57.8999 154.579V155.582H52.7075V154.579H57.8999ZM63.9619 154.375H61.4927V153.379H63.9619C64.4401 153.379 64.8273 153.303 65.1235 153.15C65.4198 152.998 65.6356 152.786 65.771 152.516C65.9106 152.245 65.9805 151.936 65.9805 151.589C65.9805 151.271 65.9106 150.973 65.771 150.694C65.6356 150.415 65.4198 150.19 65.1235 150.021C64.8273 149.847 64.4401 149.761 63.9619 149.761H61.7783V158H60.5532V148.758H63.9619C64.6602 148.758 65.2505 148.878 65.7329 149.12C66.2153 149.361 66.5814 149.695 66.8311 150.123C67.0807 150.546 67.2056 151.03 67.2056 151.576C67.2056 152.169 67.0807 152.674 66.8311 153.093C66.5814 153.512 66.2153 153.832 65.7329 154.052C65.2505 154.268 64.6602 154.375 63.9619 154.375ZM70.0684 148.758V158H68.8433V148.758H70.0684ZM76.1177 156.178C76.1177 156.009 76.0796 155.852 76.0034 155.708C75.9315 155.56 75.7812 155.427 75.5527 155.309C75.3285 155.186 74.9899 155.08 74.5371 154.991C74.1562 154.911 73.8114 154.816 73.5024 154.706C73.1978 154.596 72.9375 154.462 72.7217 154.306C72.5101 154.149 72.3472 153.965 72.2329 153.753C72.1187 153.542 72.0615 153.294 72.0615 153.011C72.0615 152.74 72.1208 152.484 72.2393 152.243C72.362 152.001 72.5334 151.788 72.7534 151.602C72.9777 151.415 73.2464 151.269 73.5596 151.164C73.8727 151.058 74.2218 151.005 74.6069 151.005C75.1571 151.005 75.6268 151.102 76.0161 151.297C76.4054 151.492 76.7038 151.752 76.9111 152.078C77.1185 152.399 77.2222 152.757 77.2222 153.15H76.0479C76.0479 152.96 75.9907 152.776 75.8765 152.598C75.7664 152.416 75.6035 152.266 75.3877 152.147C75.1761 152.029 74.9159 151.97 74.6069 151.97C74.2811 151.97 74.0166 152.021 73.8135 152.122C73.6146 152.219 73.4686 152.344 73.3755 152.497C73.2866 152.649 73.2422 152.81 73.2422 152.979C73.2422 153.106 73.2633 153.22 73.3057 153.322C73.3522 153.419 73.4326 153.51 73.5469 153.595C73.6611 153.675 73.8219 153.751 74.0293 153.823C74.2367 153.895 74.5011 153.967 74.8228 154.039C75.3856 154.166 75.849 154.318 76.2129 154.496C76.5768 154.674 76.8477 154.892 77.0254 155.15C77.2031 155.408 77.292 155.721 77.292 156.089C77.292 156.39 77.2285 156.665 77.1016 156.915C76.9788 157.164 76.799 157.38 76.562 157.562C76.3293 157.74 76.05 157.879 75.7241 157.981C75.4025 158.078 75.0407 158.127 74.6387 158.127C74.0335 158.127 73.5215 158.019 73.1025 157.803C72.6836 157.587 72.3662 157.308 72.1504 156.965C71.9346 156.623 71.8267 156.261 71.8267 155.88H73.0073C73.0243 156.201 73.1174 156.458 73.2866 156.648C73.4559 156.834 73.6632 156.967 73.9087 157.048C74.1541 157.124 74.3975 157.162 74.6387 157.162C74.9603 157.162 75.229 157.12 75.4448 157.035C75.6649 156.951 75.832 156.834 75.9463 156.686C76.0605 156.538 76.1177 156.369 76.1177 156.178ZM83.7666 152.871L85.1504 151.887C85.417 151.705 85.6222 151.523 85.7661 151.341C85.9142 151.155 85.9883 150.901 85.9883 150.58C85.9883 150.33 85.891 150.104 85.6963 149.9C85.5016 149.693 85.2266 149.589 84.8711 149.589C84.6257 149.589 84.4183 149.646 84.249 149.761C84.0798 149.875 83.9528 150.027 83.8682 150.218C83.7835 150.404 83.7412 150.609 83.7412 150.833C83.7412 151.024 83.7878 151.221 83.8809 151.424C83.974 151.627 84.103 151.839 84.2681 152.059C84.4331 152.279 84.6214 152.511 84.833 152.757L89.2065 158H87.7974L84.2109 153.709C83.8936 153.337 83.61 152.996 83.3604 152.687C83.1107 152.374 82.9139 152.071 82.77 151.779C82.6304 151.487 82.5605 151.185 82.5605 150.872C82.5605 150.389 82.6558 149.983 82.8462 149.653C83.0409 149.319 83.3117 149.065 83.6587 148.891C84.0057 148.718 84.4119 148.631 84.8774 148.631C85.3302 148.631 85.7196 148.722 86.0454 148.904C86.3755 149.082 86.6294 149.319 86.8071 149.615C86.9849 149.907 87.0737 150.228 87.0737 150.58C87.0737 150.876 87.0208 151.142 86.915 151.379C86.8092 151.612 86.6611 151.826 86.4707 152.021C86.2845 152.215 86.0666 152.406 85.8169 152.592L83.9824 153.957C83.6777 154.181 83.4556 154.395 83.3159 154.598C83.1763 154.801 83.0853 154.981 83.043 155.137C83.0049 155.294 82.9858 155.419 82.9858 155.512C82.9858 155.812 83.0514 156.087 83.1826 156.337C83.3138 156.587 83.5127 156.788 83.7793 156.94C84.0501 157.088 84.3887 157.162 84.7949 157.162C85.1504 157.162 85.4953 157.082 85.8296 156.921C86.1681 156.756 86.4707 156.523 86.7373 156.223C87.0039 155.918 87.2155 155.556 87.3721 155.137C87.5329 154.714 87.6133 154.246 87.6133 153.734H88.667C88.667 154.153 88.6268 154.549 88.5464 154.921C88.466 155.294 88.3411 155.641 88.1719 155.962C88.0068 156.28 87.7952 156.57 87.5371 156.832C87.499 156.87 87.4694 156.915 87.4482 156.965C87.4271 157.016 87.3975 157.061 87.3594 157.099C87.042 157.441 86.6506 157.7 86.1851 157.873C85.7238 158.042 85.2604 158.127 84.7949 158.127C84.1813 158.127 83.6502 158.015 83.2017 157.791C82.7573 157.566 82.4146 157.257 82.1733 156.864C81.9321 156.47 81.8115 156.02 81.8115 155.512C81.8115 155.122 81.894 154.78 82.0591 154.483C82.2284 154.187 82.459 153.91 82.751 153.652C83.0472 153.394 83.3857 153.133 83.7666 152.871ZM93.9355 148.758H95.1226L98.1504 156.292L101.172 148.758H102.365L98.6074 158H97.6807L93.9355 148.758ZM93.5483 148.758H94.5957L94.7671 154.395V158H93.5483V148.758ZM101.699 148.758H102.746V158H101.527V154.395L101.699 148.758ZM110.478 155.061H111.696C111.633 155.645 111.466 156.168 111.195 156.629C110.924 157.09 110.541 157.456 110.046 157.727C109.551 157.994 108.933 158.127 108.192 158.127C107.651 158.127 107.158 158.025 106.713 157.822C106.273 157.619 105.895 157.331 105.577 156.959C105.26 156.582 105.014 156.132 104.841 155.607C104.672 155.078 104.587 154.49 104.587 153.842V152.922C104.587 152.274 104.672 151.688 104.841 151.164C105.014 150.635 105.262 150.182 105.583 149.805C105.909 149.429 106.301 149.139 106.758 148.936C107.215 148.732 107.729 148.631 108.3 148.631C108.999 148.631 109.589 148.762 110.071 149.024C110.554 149.287 110.928 149.651 111.195 150.116C111.466 150.577 111.633 151.113 111.696 151.722H110.478C110.418 151.291 110.308 150.92 110.147 150.611C109.987 150.298 109.758 150.057 109.462 149.888C109.166 149.718 108.778 149.634 108.3 149.634C107.89 149.634 107.528 149.712 107.215 149.869C106.906 150.025 106.646 150.247 106.434 150.535C106.227 150.823 106.07 151.168 105.964 151.57C105.859 151.972 105.806 152.418 105.806 152.909V153.842C105.806 154.295 105.852 154.72 105.945 155.118C106.043 155.516 106.189 155.865 106.383 156.166C106.578 156.466 106.826 156.703 107.126 156.876C107.426 157.046 107.782 157.13 108.192 157.13C108.713 157.13 109.128 157.048 109.437 156.883C109.745 156.718 109.978 156.481 110.135 156.172C110.296 155.863 110.41 155.493 110.478 155.061ZM116.774 154.375H114.305V153.379H116.774C117.253 153.379 117.64 153.303 117.936 153.15C118.232 152.998 118.448 152.786 118.583 152.516C118.723 152.245 118.793 151.936 118.793 151.589C118.793 151.271 118.723 150.973 118.583 150.694C118.448 150.415 118.232 150.19 117.936 150.021C117.64 149.847 117.253 149.761 116.774 149.761H114.591V158H113.366V148.758H116.774C117.473 148.758 118.063 148.878 118.545 149.12C119.028 149.361 119.394 149.695 119.644 150.123C119.893 150.546 120.018 151.03 120.018 151.576C120.018 152.169 119.893 152.674 119.644 153.093C119.394 153.512 119.028 153.832 118.545 154.052C118.063 154.268 117.473 154.375 116.774 154.375Z" fill="#414042"></path>
<g filter="url(#filter4_f_9991_56944)">
<path opacity="0.1" d="M499 254H417C407.611 254 400 261.611 400 271C400 280.389 407.611 288 417 288H499C508.389 288 516 280.389 516 271C516 261.611 508.389 254 499 254Z" fill="#414042"></path>
</g>
<path d="M498.4 251.602H417.6C408.211 251.602 400.6 258.944 400.6 268.002C400.6 277.059 408.211 284.402 417.6 284.402H498.4C507.788 284.402 515.4 277.059 515.4 268.002C515.4 258.944 507.788 251.602 498.4 251.602Z" fill="white" stroke="#EDEAF7" stroke-width="1.2"></path>
<path d="M421.599 262.398H416.799C416.375 262.398 415.968 262.567 415.668 262.867C415.368 263.167 415.199 263.574 415.199 263.998V272.598C415.199 273.023 415.368 273.43 415.668 273.73C415.968 274.03 416.375 274.198 416.799 274.198H423.199C423.624 274.198 424.031 274.03 424.331 273.73C424.631 273.43 424.799 273.023 424.799 272.598V265.398L421.599 262.398Z" stroke="#7B49B0" stroke-width="1.25" stroke-linejoin="round"></path>
<path d="M421.5 262.5V265.5H424.5M417.6 269H422.4M417.6 271.4H421" stroke="#7B49B0" stroke-width="1.25" stroke-linecap="round" stroke-linejoin="round"></path>
<path d="M440.481 268.375H438.012V267.379H440.481C440.96 267.379 441.347 267.303 441.643 267.15C441.939 266.998 442.155 266.786 442.291 266.516C442.43 266.245 442.5 265.936 442.5 265.589C442.5 265.271 442.43 264.973 442.291 264.694C442.155 264.415 441.939 264.19 441.643 264.021C441.347 263.847 440.96 263.761 440.481 263.761H438.298V272H437.073V262.758H440.481C441.18 262.758 441.77 262.878 442.252 263.12C442.735 263.361 443.101 263.695 443.351 264.123C443.6 264.546 443.725 265.03 443.725 265.576C443.725 266.169 443.6 266.674 443.351 267.093C443.101 267.512 442.735 267.832 442.252 268.052C441.77 268.268 441.18 268.375 440.481 268.375ZM444.709 268.642V268.496C444.709 268.001 444.781 267.542 444.925 267.119C445.069 266.691 445.276 266.321 445.547 266.008C445.818 265.69 446.146 265.445 446.531 265.271C446.916 265.094 447.347 265.005 447.826 265.005C448.308 265.005 448.742 265.094 449.127 265.271C449.516 265.445 449.846 265.69 450.117 266.008C450.392 266.321 450.602 266.691 450.746 267.119C450.889 267.542 450.961 268.001 450.961 268.496V268.642C450.961 269.137 450.889 269.596 450.746 270.02C450.602 270.443 450.392 270.813 450.117 271.13C449.846 271.444 449.518 271.689 449.133 271.867C448.752 272.04 448.321 272.127 447.838 272.127C447.356 272.127 446.922 272.04 446.537 271.867C446.152 271.689 445.822 271.444 445.547 271.13C445.276 270.813 445.069 270.443 444.925 270.02C444.781 269.596 444.709 269.137 444.709 268.642ZM445.883 268.496V268.642C445.883 268.985 445.924 269.309 446.004 269.613C446.084 269.914 446.205 270.18 446.366 270.413C446.531 270.646 446.736 270.83 446.981 270.965C447.227 271.097 447.513 271.162 447.838 271.162C448.16 271.162 448.441 271.097 448.683 270.965C448.928 270.83 449.131 270.646 449.292 270.413C449.453 270.18 449.573 269.914 449.654 269.613C449.738 269.309 449.781 268.985 449.781 268.642V268.496C449.781 268.158 449.738 267.838 449.654 267.538C449.573 267.233 449.451 266.964 449.286 266.731C449.125 266.494 448.922 266.308 448.676 266.173C448.435 266.037 448.152 265.97 447.826 265.97C447.504 265.97 447.221 266.037 446.975 266.173C446.734 266.308 446.531 266.494 446.366 266.731C446.205 266.964 446.084 267.233 446.004 267.538C445.924 267.838 445.883 268.158 445.883 268.496ZM453.71 262.25V272H452.529V262.25H453.71ZM456.871 265.132V272H455.69V265.132H456.871ZM455.602 263.31C455.602 263.12 455.659 262.959 455.773 262.828C455.891 262.696 456.065 262.631 456.293 262.631C456.518 262.631 456.689 262.696 456.808 262.828C456.93 262.959 456.992 263.12 456.992 263.31C456.992 263.492 456.93 263.649 456.808 263.78C456.689 263.907 456.518 263.97 456.293 263.97C456.065 263.97 455.891 263.907 455.773 263.78C455.659 263.649 455.602 263.492 455.602 263.31ZM461.505 271.162C461.784 271.162 462.042 271.105 462.279 270.991C462.516 270.876 462.711 270.72 462.863 270.521C463.016 270.318 463.102 270.087 463.124 269.829H464.241C464.22 270.235 464.082 270.614 463.828 270.965C463.578 271.312 463.25 271.594 462.844 271.81C462.438 272.021 461.992 272.127 461.505 272.127C460.989 272.127 460.538 272.036 460.153 271.854C459.772 271.672 459.455 271.422 459.201 271.105C458.951 270.788 458.763 270.424 458.636 270.013C458.513 269.598 458.452 269.16 458.452 268.699V268.433C458.452 267.971 458.513 267.535 458.636 267.125C458.763 266.71 458.951 266.344 459.201 266.027C459.455 265.709 459.772 265.46 460.153 265.278C460.538 265.096 460.989 265.005 461.505 265.005C462.042 265.005 462.512 265.115 462.914 265.335C463.316 265.551 463.631 265.847 463.86 266.224C464.093 266.596 464.22 267.019 464.241 267.493H463.124C463.102 267.21 463.022 266.954 462.882 266.725C462.747 266.497 462.561 266.315 462.324 266.179C462.091 266.04 461.818 265.97 461.505 265.97C461.145 265.97 460.843 266.042 460.597 266.186C460.356 266.325 460.163 266.516 460.02 266.757C459.88 266.994 459.778 267.258 459.715 267.55C459.656 267.838 459.626 268.132 459.626 268.433V268.699C459.626 269 459.656 269.296 459.715 269.588C459.774 269.88 459.874 270.144 460.013 270.381C460.157 270.618 460.35 270.809 460.591 270.953C460.836 271.092 461.141 271.162 461.505 271.162ZM467.491 271.289L469.401 265.132H470.658L467.903 273.06C467.84 273.229 467.755 273.411 467.649 273.606C467.548 273.805 467.417 273.993 467.256 274.171C467.095 274.349 466.9 274.493 466.672 274.603C466.448 274.717 466.179 274.774 465.866 274.774C465.773 274.774 465.654 274.761 465.51 274.736C465.366 274.71 465.265 274.689 465.206 274.672L465.199 273.72C465.233 273.724 465.286 273.729 465.358 273.733C465.434 273.741 465.487 273.746 465.517 273.746C465.783 273.746 466.01 273.71 466.196 273.638C466.382 273.57 466.539 273.454 466.666 273.289C466.797 273.128 466.909 272.906 467.002 272.622L467.491 271.289ZM466.088 265.132L467.872 270.464L468.176 271.702L467.332 272.133L464.806 265.132H466.088ZM477.622 272H475.692L475.705 271.003H477.622C478.282 271.003 478.832 270.866 479.272 270.591C479.712 270.312 480.042 269.922 480.262 269.423C480.486 268.919 480.599 268.331 480.599 267.658V267.093C480.599 266.564 480.535 266.095 480.408 265.684C480.281 265.269 480.095 264.92 479.85 264.637C479.604 264.349 479.304 264.131 478.948 263.983C478.597 263.835 478.193 263.761 477.736 263.761H475.654V262.758H477.736C478.341 262.758 478.893 262.859 479.393 263.062C479.892 263.261 480.321 263.551 480.681 263.932C481.045 264.309 481.324 264.766 481.519 265.303C481.714 265.836 481.811 266.437 481.811 267.106V267.658C481.811 268.327 481.714 268.93 481.519 269.467C481.324 270 481.043 270.455 480.675 270.832C480.311 271.209 479.871 271.499 479.354 271.702C478.842 271.901 478.265 272 477.622 272ZM476.346 262.758V272H475.121V262.758H476.346ZM483.163 268.642V268.496C483.163 268.001 483.235 267.542 483.379 267.119C483.523 266.691 483.73 266.321 484.001 266.008C484.272 265.69 484.6 265.445 484.985 265.271C485.37 265.094 485.802 265.005 486.28 265.005C486.762 265.005 487.196 265.094 487.581 265.271C487.97 265.445 488.3 265.69 488.571 266.008C488.846 266.321 489.056 266.691 489.2 267.119C489.344 267.542 489.416 268.001 489.416 268.496V268.642C489.416 269.137 489.344 269.596 489.2 270.02C489.056 270.443 488.846 270.813 488.571 271.13C488.3 271.444 487.972 271.689 487.587 271.867C487.207 272.04 486.775 272.127 486.292 272.127C485.81 272.127 485.376 272.04 484.991 271.867C484.606 271.689 484.276 271.444 484.001 271.13C483.73 270.813 483.523 270.443 483.379 270.02C483.235 269.596 483.163 269.137 483.163 268.642ZM484.337 268.496V268.642C484.337 268.985 484.378 269.309 484.458 269.613C484.538 269.914 484.659 270.18 484.82 270.413C484.985 270.646 485.19 270.83 485.436 270.965C485.681 271.097 485.967 271.162 486.292 271.162C486.614 271.162 486.896 271.097 487.137 270.965C487.382 270.83 487.585 270.646 487.746 270.413C487.907 270.18 488.028 269.914 488.108 269.613C488.193 269.309 488.235 268.985 488.235 268.642V268.496C488.235 268.158 488.193 267.838 488.108 267.538C488.028 267.233 487.905 266.964 487.74 266.731C487.579 266.494 487.376 266.308 487.13 266.173C486.889 266.037 486.606 265.97 486.28 265.97C485.958 265.97 485.675 266.037 485.429 266.173C485.188 266.308 484.985 266.494 484.82 266.731C484.659 266.964 484.538 267.233 484.458 267.538C484.378 267.838 484.337 268.158 484.337 268.496ZM493.637 271.162C493.916 271.162 494.174 271.105 494.411 270.991C494.648 270.876 494.843 270.72 494.995 270.521C495.147 270.318 495.234 270.087 495.255 269.829H496.373C496.351 270.235 496.214 270.614 495.96 270.965C495.71 271.312 495.382 271.594 494.976 271.81C494.57 272.021 494.123 272.127 493.637 272.127C493.12 272.127 492.67 272.036 492.285 271.854C491.904 271.672 491.586 271.422 491.333 271.105C491.083 270.788 490.895 270.424 490.768 270.013C490.645 269.598 490.583 269.16 490.583 268.699V268.433C490.583 267.971 490.645 267.535 490.768 267.125C490.895 266.71 491.083 266.344 491.333 266.027C491.586 265.709 491.904 265.46 492.285 265.278C492.67 265.096 493.12 265.005 493.637 265.005C494.174 265.005 494.644 265.115 495.046 265.335C495.448 265.551 495.763 265.847 495.992 266.224C496.224 266.596 496.351 267.019 496.373 267.493H495.255C495.234 267.21 495.154 266.954 495.014 266.725C494.879 266.497 494.693 266.315 494.456 266.179C494.223 266.04 493.95 265.97 493.637 265.97C493.277 265.97 492.974 266.042 492.729 266.186C492.488 266.325 492.295 266.516 492.151 266.757C492.012 266.994 491.91 267.258 491.847 267.55C491.787 267.838 491.758 268.132 491.758 268.433V268.699C491.758 269 491.787 269.296 491.847 269.588C491.906 269.88 492.005 270.144 492.145 270.381C492.289 270.618 492.481 270.809 492.723 270.953C492.968 271.092 493.273 271.162 493.637 271.162ZM501.692 270.178C501.692 270.009 501.654 269.852 501.578 269.708C501.506 269.56 501.355 269.427 501.127 269.309C500.903 269.186 500.564 269.08 500.111 268.991C499.73 268.911 499.386 268.816 499.077 268.706C498.772 268.596 498.512 268.462 498.296 268.306C498.084 268.149 497.921 267.965 497.807 267.753C497.693 267.542 497.636 267.294 497.636 267.011C497.636 266.74 497.695 266.484 497.813 266.243C497.936 266.001 498.108 265.788 498.328 265.602C498.552 265.415 498.821 265.269 499.134 265.164C499.447 265.058 499.796 265.005 500.181 265.005C500.731 265.005 501.201 265.102 501.59 265.297C501.98 265.492 502.278 265.752 502.485 266.078C502.693 266.399 502.796 266.757 502.796 267.15H501.622C501.622 266.96 501.565 266.776 501.451 266.598C501.341 266.416 501.178 266.266 500.962 266.147C500.75 266.029 500.49 265.97 500.181 265.97C499.855 265.97 499.591 266.021 499.388 266.122C499.189 266.219 499.043 266.344 498.95 266.497C498.861 266.649 498.816 266.81 498.816 266.979C498.816 267.106 498.838 267.22 498.88 267.322C498.926 267.419 499.007 267.51 499.121 267.595C499.235 267.675 499.396 267.751 499.604 267.823C499.811 267.895 500.075 267.967 500.397 268.039C500.96 268.166 501.423 268.318 501.787 268.496C502.151 268.674 502.422 268.892 502.6 269.15C502.777 269.408 502.866 269.721 502.866 270.089C502.866 270.39 502.803 270.665 502.676 270.915C502.553 271.164 502.373 271.38 502.136 271.562C501.903 271.74 501.624 271.879 501.298 271.981C500.977 272.078 500.615 272.127 500.213 272.127C499.608 272.127 499.096 272.019 498.677 271.803C498.258 271.587 497.94 271.308 497.725 270.965C497.509 270.623 497.401 270.261 497.401 269.88H498.582C498.598 270.201 498.692 270.458 498.861 270.648C499.03 270.834 499.237 270.967 499.483 271.048C499.728 271.124 499.972 271.162 500.213 271.162C500.535 271.162 500.803 271.12 501.019 271.035C501.239 270.951 501.406 270.834 501.521 270.686C501.635 270.538 501.692 270.369 501.692 270.178Z" fill="#414042"></path>
<g filter="url(#filter5_f_9991_56944)">
<path opacity="0.1" d="M102 316H20C10.6112 316 3 323.611 3 333C3 342.389 10.6112 350 20 350H102C111.389 350 119 342.389 119 333C119 323.611 111.389 316 102 316Z" fill="#414042"></path>
</g>
<path d="M101.4 313.602H20.5996C11.2108 313.602 3.59961 320.944 3.59961 330.002C3.59961 339.059 11.2108 346.402 20.5996 346.402H101.4C110.788 346.402 118.4 339.059 118.4 330.002C118.4 320.944 110.788 313.602 101.4 313.602Z" fill="white" stroke="#EDEAF7" stroke-width="1.2"></path>
<path d="M22.9992 324.203L27.7992 326.103V329.903C27.7992 332.503 25.7992 334.303 22.9992 335.203C20.1992 334.303 18.1992 332.503 18.1992 329.903V326.103L22.9992 324.203Z" stroke="#2F7D5B" stroke-width="1.25" stroke-linejoin="round"></path>
<path d="M46.9028 329.398V332.781C46.7886 332.951 46.6066 333.141 46.3569 333.353C46.1073 333.56 45.7624 333.742 45.3223 333.898C44.8864 334.051 44.3236 334.127 43.6338 334.127C43.071 334.127 42.5526 334.03 42.0786 333.835C41.6089 333.636 41.2005 333.348 40.8535 332.972C40.5107 332.591 40.2441 332.13 40.0537 331.588C39.8675 331.042 39.7744 330.424 39.7744 329.734V329.017C39.7744 328.327 39.8548 327.712 40.0156 327.17C40.1807 326.628 40.4219 326.169 40.7393 325.792C41.0566 325.412 41.446 325.124 41.9072 324.929C42.3685 324.73 42.8975 324.631 43.4941 324.631C44.2008 324.631 44.7912 324.754 45.2651 324.999C45.7433 325.24 46.1157 325.575 46.3823 326.002C46.6532 326.429 46.8267 326.916 46.9028 327.462H45.6777C45.6227 327.128 45.5127 326.823 45.3477 326.548C45.1868 326.273 44.9562 326.053 44.6558 325.888C44.3553 325.718 43.9681 325.634 43.4941 325.634C43.0667 325.634 42.6965 325.712 42.3833 325.869C42.0701 326.025 41.812 326.25 41.6089 326.542C41.4058 326.833 41.2534 327.187 41.1519 327.602C41.0545 328.016 41.0059 328.484 41.0059 329.004V329.734C41.0059 330.268 41.0672 330.744 41.1899 331.163C41.3169 331.582 41.4967 331.939 41.7295 332.235C41.9622 332.527 42.2394 332.75 42.561 332.902C42.8869 333.054 43.2466 333.13 43.6401 333.13C44.076 333.13 44.4294 333.094 44.7002 333.022C44.971 332.946 45.1826 332.857 45.335 332.756C45.4873 332.65 45.6037 332.551 45.6841 332.458V330.388H43.5449V329.398H46.9028ZM48.4453 330.642V330.496C48.4453 330.001 48.5173 329.542 48.6611 329.119C48.805 328.691 49.0124 328.321 49.2832 328.008C49.554 327.69 49.882 327.445 50.2671 327.271C50.6522 327.094 51.0838 327.005 51.562 327.005C52.0444 327.005 52.4782 327.094 52.8633 327.271C53.2526 327.445 53.5827 327.69 53.8535 328.008C54.1286 328.321 54.3381 328.691 54.4819 329.119C54.6258 329.542 54.6978 330.001 54.6978 330.496V330.642C54.6978 331.137 54.6258 331.596 54.4819 332.02C54.3381 332.443 54.1286 332.813 53.8535 333.13C53.5827 333.444 53.2547 333.689 52.8696 333.867C52.4888 334.04 52.0571 334.127 51.5747 334.127C51.0923 334.127 50.6585 334.04 50.2734 333.867C49.8883 333.689 49.5583 333.444 49.2832 333.13C49.0124 332.813 48.805 332.443 48.6611 332.02C48.5173 331.596 48.4453 331.137 48.4453 330.642ZM49.6196 330.496V330.642C49.6196 330.985 49.6598 331.309 49.7402 331.613C49.8206 331.914 49.9412 332.18 50.1021 332.413C50.2671 332.646 50.4723 332.83 50.7178 332.965C50.9632 333.097 51.2489 333.162 51.5747 333.162C51.8963 333.162 52.1777 333.097 52.4189 332.965C52.6644 332.83 52.8675 332.646 53.0283 332.413C53.1891 332.18 53.3097 331.914 53.3901 331.613C53.4748 331.309 53.5171 330.985 53.5171 330.642V330.496C53.5171 330.158 53.4748 329.838 53.3901 329.538C53.3097 329.233 53.187 328.964 53.022 328.731C52.8612 328.494 52.658 328.308 52.4126 328.173C52.1714 328.037 51.8879 327.97 51.562 327.97C51.2404 327.97 50.9569 328.037 50.7114 328.173C50.4702 328.308 50.2671 328.494 50.1021 328.731C49.9412 328.964 49.8206 329.233 49.7402 329.538C49.6598 329.838 49.6196 330.158 49.6196 330.496ZM58.1699 332.94L60.0488 327.132H61.2485L58.7793 334H57.9922L58.1699 332.94ZM56.6021 327.132L58.5381 332.972L58.6714 334H57.8843L55.396 327.132H56.6021ZM65.1523 334.127C64.6742 334.127 64.2404 334.047 63.8511 333.886C63.466 333.721 63.1338 333.49 62.8545 333.194C62.5794 332.898 62.3678 332.546 62.2197 332.14C62.0716 331.734 61.9976 331.29 61.9976 330.807V330.541C61.9976 329.982 62.0801 329.485 62.2451 329.049C62.4102 328.609 62.6344 328.236 62.918 327.932C63.2015 327.627 63.5231 327.396 63.8828 327.24C64.2425 327.083 64.6149 327.005 65 327.005C65.4909 327.005 65.9141 327.09 66.2695 327.259C66.6292 327.428 66.9233 327.665 67.1519 327.97C67.3804 328.27 67.5496 328.626 67.6597 329.036C67.7697 329.442 67.8247 329.887 67.8247 330.369V330.896H62.6958V329.938H66.6504V329.849C66.6335 329.544 66.57 329.248 66.46 328.96C66.3542 328.672 66.1849 328.435 65.9521 328.249C65.7194 328.063 65.402 327.97 65 327.97C64.7334 327.97 64.488 328.027 64.2637 328.141C64.0394 328.251 63.8468 328.416 63.686 328.636C63.5252 328.856 63.4004 329.125 63.3115 329.442C63.2227 329.76 63.1782 330.126 63.1782 330.541V330.807C63.1782 331.133 63.2227 331.44 63.3115 331.728C63.4046 332.011 63.5379 332.261 63.7114 332.477C63.8892 332.692 64.1029 332.862 64.3525 332.984C64.6064 333.107 64.8942 333.168 65.2158 333.168C65.6305 333.168 65.9818 333.084 66.2695 332.915C66.5573 332.745 66.8091 332.519 67.0249 332.235L67.7358 332.8C67.5877 333.025 67.3994 333.238 67.1709 333.441C66.9424 333.645 66.661 333.81 66.3267 333.937C65.9966 334.063 65.6051 334.127 65.1523 334.127ZM70.3701 328.211V334H69.1958V327.132H70.3384L70.3701 328.211ZM72.5156 327.094L72.5093 328.186C72.4119 328.164 72.3188 328.152 72.23 328.147C72.1453 328.139 72.048 328.135 71.938 328.135C71.6672 328.135 71.4281 328.177 71.2207 328.262C71.0133 328.346 70.8377 328.465 70.6938 328.617C70.55 328.77 70.4357 328.951 70.3511 329.163C70.2707 329.37 70.2178 329.599 70.1924 329.849L69.8623 330.039C69.8623 329.624 69.9025 329.235 69.9829 328.871C70.0675 328.507 70.1966 328.186 70.3701 327.906C70.5436 327.623 70.7637 327.403 71.0303 327.246C71.3011 327.085 71.6227 327.005 71.9951 327.005C72.0798 327.005 72.1771 327.015 72.2871 327.037C72.3971 327.054 72.4733 327.073 72.5156 327.094ZM74.7754 328.598V334H73.6011V327.132H74.7119L74.7754 328.598ZM74.4961 330.306L74.0073 330.287C74.0116 329.817 74.0814 329.383 74.2168 328.985C74.3522 328.583 74.5426 328.234 74.7881 327.938C75.0335 327.642 75.3255 327.413 75.6641 327.252C76.0068 327.087 76.3856 327.005 76.8003 327.005C77.1388 327.005 77.4435 327.051 77.7144 327.145C77.9852 327.233 78.2158 327.377 78.4062 327.576C78.6009 327.775 78.749 328.033 78.8506 328.351C78.9521 328.664 79.0029 329.047 79.0029 329.5V334H77.8223V329.487C77.8223 329.127 77.7694 328.839 77.6636 328.624C77.5578 328.403 77.4033 328.245 77.2002 328.147C76.9971 328.046 76.7474 327.995 76.4512 327.995C76.1592 327.995 75.8926 328.056 75.6514 328.179C75.4144 328.302 75.2091 328.471 75.0356 328.687C74.8664 328.903 74.7331 329.15 74.6357 329.43C74.5426 329.705 74.4961 329.997 74.4961 330.306ZM84.8364 332.826V329.29C84.8364 329.019 84.7814 328.784 84.6714 328.585C84.5656 328.382 84.4048 328.226 84.189 328.116C83.9731 328.006 83.7065 327.951 83.3892 327.951C83.0929 327.951 82.8327 328.001 82.6084 328.103C82.3883 328.205 82.2148 328.338 82.0879 328.503C81.9652 328.668 81.9038 328.846 81.9038 329.036H80.7295C80.7295 328.791 80.793 328.547 80.9199 328.306C81.0469 328.065 81.2288 327.847 81.4658 327.652C81.707 327.453 81.9948 327.297 82.3291 327.183C82.6676 327.064 83.0443 327.005 83.459 327.005C83.9583 327.005 84.3984 327.09 84.7793 327.259C85.1644 327.428 85.4648 327.684 85.6807 328.027C85.9007 328.365 86.0107 328.791 86.0107 329.303V332.502C86.0107 332.73 86.0298 332.974 86.0679 333.232C86.1102 333.49 86.1715 333.712 86.252 333.898V334H85.0269C84.9676 333.865 84.9211 333.685 84.8872 333.46C84.8534 333.232 84.8364 333.02 84.8364 332.826ZM85.0396 329.836L85.0522 330.661H83.8652C83.5309 330.661 83.2326 330.689 82.9702 330.744C82.7078 330.794 82.4878 330.873 82.3101 330.979C82.1323 331.084 81.9969 331.218 81.9038 331.378C81.8107 331.535 81.7642 331.719 81.7642 331.931C81.7642 332.146 81.8128 332.343 81.9102 332.521C82.0075 332.699 82.1535 332.84 82.3481 332.946C82.547 333.048 82.7904 333.099 83.0781 333.099C83.4378 333.099 83.7552 333.022 84.0303 332.87C84.3053 332.718 84.5233 332.532 84.6841 332.312C84.8491 332.091 84.938 331.878 84.9507 331.67L85.4521 332.235C85.4225 332.413 85.3421 332.61 85.2109 332.826C85.0798 333.042 84.9041 333.249 84.6841 333.448C84.4683 333.642 84.2101 333.805 83.9097 333.937C83.6134 334.063 83.2791 334.127 82.9067 334.127C82.4412 334.127 82.0329 334.036 81.6816 333.854C81.3346 333.672 81.0638 333.429 80.8691 333.124C80.6787 332.815 80.5835 332.47 80.5835 332.089C80.5835 331.721 80.6554 331.397 80.7993 331.118C80.9432 330.835 81.1506 330.6 81.4214 330.414C81.6922 330.223 82.0181 330.079 82.3989 329.982C82.7798 329.885 83.2051 329.836 83.6748 329.836H85.0396ZM89.0322 328.598V334H87.8579V327.132H88.9688L89.0322 328.598ZM88.7529 330.306L88.2642 330.287C88.2684 329.817 88.3382 329.383 88.4736 328.985C88.609 328.583 88.7995 328.234 89.0449 327.938C89.2904 327.642 89.5824 327.413 89.9209 327.252C90.2637 327.087 90.6424 327.005 91.0571 327.005C91.3957 327.005 91.7004 327.051 91.9712 327.145C92.242 327.233 92.4727 327.377 92.6631 327.576C92.8577 327.775 93.0059 328.033 93.1074 328.351C93.209 328.664 93.2598 329.047 93.2598 329.5V334H92.0791V329.487C92.0791 329.127 92.0262 328.839 91.9204 328.624C91.8146 328.403 91.6602 328.245 91.457 328.147C91.2539 328.046 91.0042 327.995 90.708 327.995C90.416 327.995 90.1494 328.056 89.9082 328.179C89.6712 328.302 89.466 328.471 89.2925 328.687C89.1232 328.903 88.9899 329.15 88.8926 329.43C88.7995 329.705 88.7529 329.997 88.7529 330.306ZM97.792 333.162C98.0713 333.162 98.3294 333.105 98.5664 332.991C98.8034 332.876 98.998 332.72 99.1504 332.521C99.3027 332.318 99.3895 332.087 99.4106 331.829H100.528C100.507 332.235 100.369 332.614 100.115 332.965C99.8656 333.312 99.5376 333.594 99.1313 333.81C98.7251 334.021 98.2786 334.127 97.792 334.127C97.2757 334.127 96.825 334.036 96.4399 333.854C96.0591 333.672 95.7417 333.422 95.4878 333.105C95.2381 332.788 95.0498 332.424 94.9229 332.013C94.8001 331.598 94.7388 331.16 94.7388 330.699V330.433C94.7388 329.971 94.8001 329.535 94.9229 329.125C95.0498 328.71 95.2381 328.344 95.4878 328.027C95.7417 327.709 96.0591 327.46 96.4399 327.278C96.825 327.096 97.2757 327.005 97.792 327.005C98.3294 327.005 98.7992 327.115 99.2012 327.335C99.6032 327.551 99.9185 327.847 100.147 328.224C100.38 328.596 100.507 329.019 100.528 329.493H99.4106C99.3895 329.21 99.3091 328.954 99.1694 328.725C99.034 328.497 98.8478 328.315 98.6108 328.179C98.3781 328.04 98.1051 327.97 97.792 327.97C97.4323 327.97 97.1297 328.042 96.8843 328.186C96.6431 328.325 96.4505 328.516 96.3066 328.757C96.167 328.994 96.0654 329.258 96.002 329.55C95.9427 329.838 95.9131 330.132 95.9131 330.433V330.699C95.9131 331 95.9427 331.296 96.002 331.588C96.0612 331.88 96.1606 332.144 96.3003 332.381C96.4442 332.618 96.6367 332.809 96.8779 332.953C97.1234 333.092 97.4281 333.162 97.792 333.162ZM104.698 334.127C104.22 334.127 103.786 334.047 103.397 333.886C103.012 333.721 102.68 333.49 102.4 333.194C102.125 332.898 101.914 332.546 101.766 332.14C101.618 331.734 101.543 331.29 101.543 330.807V330.541C101.543 329.982 101.626 329.485 101.791 329.049C101.956 328.609 102.18 328.236 102.464 327.932C102.747 327.627 103.069 327.396 103.429 327.24C103.788 327.083 104.161 327.005 104.546 327.005C105.037 327.005 105.46 327.09 105.815 327.259C106.175 327.428 106.469 327.665 106.698 327.97C106.926 328.27 107.096 328.626 107.206 329.036C107.316 329.442 107.371 329.887 107.371 330.369V330.896H102.242V329.938H106.196V329.849C106.179 329.544 106.116 329.248 106.006 328.96C105.9 328.672 105.731 328.435 105.498 328.249C105.265 328.063 104.948 327.97 104.546 327.97C104.279 327.97 104.034 328.027 103.81 328.141C103.585 328.251 103.393 328.416 103.232 328.636C103.071 328.856 102.946 329.125 102.857 329.442C102.769 329.76 102.724 330.126 102.724 330.541V330.807C102.724 331.133 102.769 331.44 102.857 331.728C102.951 332.011 103.084 332.261 103.257 332.477C103.435 332.692 103.649 332.862 103.898 332.984C104.152 333.107 104.44 333.168 104.762 333.168C105.176 333.168 105.528 333.084 105.815 332.915C106.103 332.745 106.355 332.519 106.571 332.235L107.282 332.8C107.134 333.025 106.945 333.238 106.717 333.441C106.488 333.645 106.207 333.81 105.873 333.937C105.542 334.063 105.151 334.127 104.698 334.127Z" fill="#414042"></path>
<g filter="url(#filter6_f_9991_56944)">
<path opacity="0.1" d="M413 407H329C319.611 407 312 414.611 312 424C312 433.389 319.611 441 329 441H413C422.389 441 430 433.389 430 424C430 414.611 422.389 407 413 407Z" fill="#414042"></path>
</g>
<path d="M412.4 404.602H329.6C320.211 404.602 312.6 411.944 312.6 421.002C312.6 430.059 320.211 437.402 329.6 437.402H412.4C421.788 437.402 429.4 430.059 429.4 421.002C429.4 411.944 421.788 404.602 412.4 404.602Z" fill="white" stroke="#EDEAF7" stroke-width="1.2"></path>
<path d="M327.199 426.405V422.205M330.799 426.405V417.805M334.399 426.405V420.405M337.999 426.405V419.005" stroke="#C98A2E" stroke-width="1.4" stroke-linecap="round"></path>
<path d="M349.46 415.758H350.647L353.675 423.292L356.696 415.758H357.89L354.132 425H353.205L349.46 415.758ZM349.073 415.758H350.12L350.292 421.395V425H349.073V415.758ZM357.223 415.758H358.271V425H357.052V421.395L357.223 415.758ZM364.294 423.826V420.29C364.294 420.019 364.239 419.784 364.129 419.585C364.024 419.382 363.863 419.226 363.647 419.116C363.431 419.006 363.165 418.951 362.847 418.951C362.551 418.951 362.291 419.001 362.066 419.103C361.846 419.205 361.673 419.338 361.546 419.503C361.423 419.668 361.362 419.846 361.362 420.036H360.188C360.188 419.791 360.251 419.547 360.378 419.306C360.505 419.065 360.687 418.847 360.924 418.652C361.165 418.453 361.453 418.297 361.787 418.183C362.126 418.064 362.502 418.005 362.917 418.005C363.416 418.005 363.856 418.09 364.237 418.259C364.622 418.428 364.923 418.684 365.139 419.027C365.359 419.365 365.469 419.791 365.469 420.303V423.502C365.469 423.73 365.488 423.974 365.526 424.232C365.568 424.49 365.63 424.712 365.71 424.898V425H364.485C364.426 424.865 364.379 424.685 364.345 424.46C364.311 424.232 364.294 424.02 364.294 423.826ZM364.498 420.836L364.51 421.661H363.323C362.989 421.661 362.691 421.689 362.428 421.744C362.166 421.794 361.946 421.873 361.768 421.979C361.59 422.084 361.455 422.218 361.362 422.378C361.269 422.535 361.222 422.719 361.222 422.931C361.222 423.146 361.271 423.343 361.368 423.521C361.465 423.699 361.611 423.84 361.806 423.946C362.005 424.048 362.248 424.099 362.536 424.099C362.896 424.099 363.213 424.022 363.488 423.87C363.763 423.718 363.981 423.532 364.142 423.312C364.307 423.091 364.396 422.878 364.409 422.67L364.91 423.235C364.881 423.413 364.8 423.61 364.669 423.826C364.538 424.042 364.362 424.249 364.142 424.448C363.926 424.642 363.668 424.805 363.368 424.937C363.071 425.063 362.737 425.127 362.365 425.127C361.899 425.127 361.491 425.036 361.14 424.854C360.793 424.672 360.522 424.429 360.327 424.124C360.137 423.815 360.042 423.47 360.042 423.089C360.042 422.721 360.113 422.397 360.257 422.118C360.401 421.835 360.609 421.6 360.879 421.414C361.15 421.223 361.476 421.079 361.857 420.982C362.238 420.885 362.663 420.836 363.133 420.836H364.498ZM368.49 419.211V425H367.316V418.132H368.458L368.49 419.211ZM370.636 418.094L370.629 419.186C370.532 419.164 370.439 419.152 370.35 419.147C370.265 419.139 370.168 419.135 370.058 419.135C369.787 419.135 369.548 419.177 369.341 419.262C369.133 419.346 368.958 419.465 368.814 419.617C368.67 419.77 368.556 419.951 368.471 420.163C368.391 420.37 368.338 420.599 368.312 420.849L367.982 421.039C367.982 420.624 368.023 420.235 368.103 419.871C368.188 419.507 368.317 419.186 368.49 418.906C368.664 418.623 368.884 418.403 369.15 418.246C369.421 418.085 369.743 418.005 370.115 418.005C370.2 418.005 370.297 418.015 370.407 418.037C370.517 418.054 370.593 418.073 370.636 418.094ZM372.902 415.25V425H371.721V415.25H372.902ZM377.098 418.132L374.102 421.337L372.426 423.077L372.331 421.826L373.53 420.392L375.663 418.132H377.098ZM376.025 425L373.575 421.725L374.184 420.677L377.409 425H376.025ZM381.033 425.127C380.555 425.127 380.121 425.047 379.732 424.886C379.347 424.721 379.015 424.49 378.735 424.194C378.46 423.898 378.249 423.546 378.101 423.14C377.952 422.734 377.878 422.29 377.878 421.807V421.541C377.878 420.982 377.961 420.485 378.126 420.049C378.291 419.609 378.515 419.236 378.799 418.932C379.082 418.627 379.404 418.396 379.764 418.24C380.123 418.083 380.496 418.005 380.881 418.005C381.372 418.005 381.795 418.09 382.15 418.259C382.51 418.428 382.804 418.665 383.033 418.97C383.261 419.27 383.431 419.626 383.541 420.036C383.651 420.442 383.706 420.887 383.706 421.369V421.896H378.577V420.938H382.531V420.849C382.514 420.544 382.451 420.248 382.341 419.96C382.235 419.672 382.066 419.435 381.833 419.249C381.6 419.063 381.283 418.97 380.881 418.97C380.614 418.97 380.369 419.027 380.145 419.141C379.92 419.251 379.728 419.416 379.567 419.636C379.406 419.856 379.281 420.125 379.192 420.442C379.104 420.76 379.059 421.126 379.059 421.541V421.807C379.059 422.133 379.104 422.44 379.192 422.728C379.285 423.011 379.419 423.261 379.592 423.477C379.77 423.692 379.984 423.862 380.233 423.984C380.487 424.107 380.775 424.168 381.097 424.168C381.511 424.168 381.863 424.084 382.15 423.915C382.438 423.745 382.69 423.519 382.906 423.235L383.617 423.8C383.469 424.025 383.28 424.238 383.052 424.441C382.823 424.645 382.542 424.81 382.208 424.937C381.877 425.063 381.486 425.127 381.033 425.127ZM387.952 418.132V419.033H384.239V418.132H387.952ZM385.496 416.462H386.67V423.299C386.67 423.532 386.706 423.707 386.778 423.826C386.85 423.944 386.943 424.022 387.057 424.061C387.171 424.099 387.294 424.118 387.425 424.118C387.523 424.118 387.624 424.109 387.73 424.092C387.84 424.071 387.923 424.054 387.978 424.042L387.984 425C387.891 425.03 387.768 425.057 387.616 425.083C387.468 425.112 387.288 425.127 387.076 425.127C386.788 425.127 386.524 425.07 386.283 424.956C386.042 424.841 385.849 424.651 385.705 424.384C385.565 424.113 385.496 423.75 385.496 423.292V416.462ZM395.233 425H393.303L393.316 424.003H395.233C395.893 424.003 396.443 423.866 396.883 423.591C397.323 423.312 397.653 422.922 397.874 422.423C398.098 421.919 398.21 421.331 398.21 420.658V420.093C398.21 419.564 398.146 419.095 398.02 418.684C397.893 418.269 397.706 417.92 397.461 417.637C397.215 417.349 396.915 417.131 396.56 416.983C396.208 416.835 395.804 416.761 395.347 416.761H393.265V415.758H395.347C395.952 415.758 396.505 415.859 397.004 416.062C397.503 416.261 397.933 416.551 398.292 416.932C398.656 417.309 398.936 417.766 399.13 418.303C399.325 418.836 399.422 419.437 399.422 420.106V420.658C399.422 421.327 399.325 421.93 399.13 422.467C398.936 423 398.654 423.455 398.286 423.832C397.922 424.209 397.482 424.499 396.966 424.702C396.454 424.901 395.876 425 395.233 425ZM393.957 415.758V425H392.732V415.758H393.957ZM405.135 423.826V420.29C405.135 420.019 405.08 419.784 404.97 419.585C404.864 419.382 404.704 419.226 404.488 419.116C404.272 419.006 404.005 418.951 403.688 418.951C403.392 418.951 403.132 419.001 402.907 419.103C402.687 419.205 402.514 419.338 402.387 419.503C402.264 419.668 402.203 419.846 402.203 420.036H401.028C401.028 419.791 401.092 419.547 401.219 419.306C401.346 419.065 401.528 418.847 401.765 418.652C402.006 418.453 402.294 418.297 402.628 418.183C402.966 418.064 403.343 418.005 403.758 418.005C404.257 418.005 404.697 418.09 405.078 418.259C405.463 418.428 405.764 418.684 405.979 419.027C406.2 419.365 406.31 419.791 406.31 420.303V423.502C406.31 423.73 406.329 423.974 406.367 424.232C406.409 424.49 406.47 424.712 406.551 424.898V425H405.326C405.266 424.865 405.22 424.685 405.186 424.46C405.152 424.232 405.135 424.02 405.135 423.826ZM405.338 420.836L405.351 421.661H404.164C403.83 421.661 403.531 421.689 403.269 421.744C403.007 421.794 402.787 421.873 402.609 421.979C402.431 422.084 402.296 422.218 402.203 422.378C402.11 422.535 402.063 422.719 402.063 422.931C402.063 423.146 402.112 423.343 402.209 423.521C402.306 423.699 402.452 423.84 402.647 423.946C402.846 424.048 403.089 424.099 403.377 424.099C403.737 424.099 404.054 424.022 404.329 423.87C404.604 423.718 404.822 423.532 404.983 423.312C405.148 423.091 405.237 422.878 405.25 422.67L405.751 423.235C405.721 423.413 405.641 423.61 405.51 423.826C405.379 424.042 405.203 424.249 404.983 424.448C404.767 424.642 404.509 424.805 404.208 424.937C403.912 425.063 403.578 425.127 403.206 425.127C402.74 425.127 402.332 425.036 401.98 424.854C401.633 424.672 401.363 424.429 401.168 424.124C400.978 423.815 400.882 423.47 400.882 423.089C400.882 422.721 400.954 422.397 401.098 422.118C401.242 421.835 401.449 421.6 401.72 421.414C401.991 421.223 402.317 421.079 402.698 420.982C403.079 420.885 403.504 420.836 403.974 420.836H405.338ZM411.032 418.132V419.033H407.319V418.132H411.032ZM408.576 416.462H409.75V423.299C409.75 423.532 409.786 423.707 409.858 423.826C409.93 423.944 410.023 424.022 410.137 424.061C410.251 424.099 410.374 424.118 410.505 424.118C410.603 424.118 410.704 424.109 410.81 424.092C410.92 424.071 411.003 424.054 411.058 424.042L411.064 425C410.971 425.03 410.848 425.057 410.696 425.083C410.548 425.112 410.368 425.127 410.156 425.127C409.868 425.127 409.604 425.07 409.363 424.956C409.122 424.841 408.929 424.651 408.785 424.384C408.646 424.113 408.576 423.75 408.576 423.292V416.462ZM416.459 423.826V420.29C416.459 420.019 416.404 419.784 416.294 419.585C416.189 419.382 416.028 419.226 415.812 419.116C415.596 419.006 415.33 418.951 415.012 418.951C414.716 418.951 414.456 419.001 414.231 419.103C414.011 419.205 413.838 419.338 413.711 419.503C413.588 419.668 413.527 419.846 413.527 420.036H412.353C412.353 419.791 412.416 419.547 412.543 419.306C412.67 419.065 412.852 418.847 413.089 418.652C413.33 418.453 413.618 418.297 413.952 418.183C414.291 418.064 414.667 418.005 415.082 418.005C415.581 418.005 416.021 418.09 416.402 418.259C416.787 418.428 417.088 418.684 417.304 419.027C417.524 419.365 417.634 419.791 417.634 420.303V423.502C417.634 423.73 417.653 423.974 417.691 424.232C417.733 424.49 417.795 424.712 417.875 424.898V425H416.65C416.591 424.865 416.544 424.685 416.51 424.46C416.476 424.232 416.459 424.02 416.459 423.826ZM416.663 420.836L416.675 421.661H415.488C415.154 421.661 414.856 421.689 414.593 421.744C414.331 421.794 414.111 421.873 413.933 421.979C413.755 422.084 413.62 422.218 413.527 422.378C413.434 422.535 413.387 422.719 413.387 422.931C413.387 423.146 413.436 423.343 413.533 423.521C413.631 423.699 413.777 423.84 413.971 423.946C414.17 424.048 414.413 424.099 414.701 424.099C415.061 424.099 415.378 424.022 415.653 423.87C415.928 423.718 416.146 423.532 416.307 423.312C416.472 423.091 416.561 422.878 416.574 422.67L417.075 423.235C417.046 423.413 416.965 423.61 416.834 423.826C416.703 424.042 416.527 424.249 416.307 424.448C416.091 424.642 415.833 424.805 415.533 424.937C415.236 425.063 414.902 425.127 414.53 425.127C414.064 425.127 413.656 425.036 413.305 424.854C412.958 424.672 412.687 424.429 412.492 424.124C412.302 423.815 412.207 423.47 412.207 423.089C412.207 422.721 412.278 422.397 412.422 422.118C412.566 421.835 412.774 421.6 413.044 421.414C413.315 421.223 413.641 421.079 414.022 420.982C414.403 420.885 414.828 420.836 415.298 420.836H416.663Z" fill="#414042"></path>
<g filter="url(#filter7_f_9991_56944)">
<path opacity="0.1" d="M247 436H143C133.611 436 126 443.611 126 453C126 462.389 133.611 470 143 470H247C256.389 470 264 462.389 264 453C264 443.611 256.389 436 247 436Z" fill="#414042"></path>
</g>
<path d="M246.4 433.602H143.6C134.211 433.602 126.6 440.944 126.6 450.002C126.6 459.059 134.211 466.402 143.6 466.402H246.4C255.788 466.402 263.4 459.059 263.4 450.002C263.4 440.944 255.788 433.602 246.4 433.602Z" fill="white" stroke="#EDEAF7" stroke-width="1.2"></path>
<path d="M149.8 446.203H142.2C141.206 446.203 140.4 447.009 140.4 448.003V452.403C140.4 453.397 141.206 454.203 142.2 454.203H149.8C150.795 454.203 151.6 453.397 151.6 452.403V448.003C151.6 447.009 150.795 446.203 149.8 446.203Z" stroke="#7B49B0" stroke-width="1.25"></path>
<path d="M141.4 447.602L146 451.102L150.6 447.602" stroke="#7B49B0" stroke-width="1.25" stroke-linecap="round" stroke-linejoin="round"></path>
<path d="M168.944 453.003V454H164.05V453.003H168.944ZM164.298 444.758V454H163.073V444.758H164.298ZM168.297 448.731V449.728H164.05V448.731H168.297ZM168.881 444.758V445.761H164.05V444.758H168.881ZM171.452 448.497V454H170.271V447.132H171.388L171.452 448.497ZM171.21 450.306L170.665 450.287C170.669 449.817 170.73 449.383 170.849 448.985C170.967 448.583 171.143 448.234 171.375 447.938C171.608 447.642 171.898 447.413 172.245 447.252C172.592 447.087 172.994 447.005 173.451 447.005C173.773 447.005 174.069 447.051 174.34 447.145C174.611 447.233 174.846 447.375 175.044 447.57C175.243 447.764 175.398 448.014 175.508 448.319C175.618 448.624 175.673 448.992 175.673 449.423V454H174.499V449.48C174.499 449.121 174.437 448.833 174.314 448.617C174.196 448.401 174.027 448.245 173.807 448.147C173.587 448.046 173.328 447.995 173.032 447.995C172.685 447.995 172.395 448.056 172.163 448.179C171.93 448.302 171.744 448.471 171.604 448.687C171.464 448.903 171.363 449.15 171.299 449.43C171.24 449.705 171.21 449.997 171.21 450.306ZM175.66 449.658L174.873 449.899C174.877 449.523 174.939 449.161 175.057 448.814C175.18 448.467 175.355 448.158 175.584 447.887C175.817 447.616 176.102 447.403 176.441 447.246C176.779 447.085 177.167 447.005 177.603 447.005C177.971 447.005 178.297 447.054 178.58 447.151C178.868 447.248 179.109 447.398 179.304 447.602C179.503 447.8 179.653 448.056 179.754 448.37C179.856 448.683 179.907 449.055 179.907 449.487V454H178.726V449.474C178.726 449.089 178.665 448.791 178.542 448.579C178.424 448.363 178.254 448.213 178.034 448.128C177.818 448.04 177.56 447.995 177.26 447.995C177.002 447.995 176.773 448.04 176.574 448.128C176.375 448.217 176.208 448.34 176.073 448.497C175.937 448.649 175.834 448.825 175.762 449.023C175.694 449.222 175.66 449.434 175.66 449.658ZM185.734 452.826V449.29C185.734 449.019 185.679 448.784 185.569 448.585C185.463 448.382 185.302 448.226 185.086 448.116C184.871 448.006 184.604 447.951 184.287 447.951C183.99 447.951 183.73 448.001 183.506 448.103C183.286 448.205 183.112 448.338 182.985 448.503C182.863 448.668 182.801 448.846 182.801 449.036H181.627C181.627 448.791 181.69 448.547 181.817 448.306C181.944 448.065 182.126 447.847 182.363 447.652C182.604 447.453 182.892 447.297 183.227 447.183C183.565 447.064 183.942 447.005 184.356 447.005C184.856 447.005 185.296 447.09 185.677 447.259C186.062 447.428 186.362 447.684 186.578 448.027C186.798 448.365 186.908 448.791 186.908 449.303V452.502C186.908 452.73 186.927 452.974 186.965 453.232C187.008 453.49 187.069 453.712 187.149 453.898V454H185.924C185.865 453.865 185.819 453.685 185.785 453.46C185.751 453.232 185.734 453.02 185.734 452.826ZM185.937 449.836L185.95 450.661H184.763C184.428 450.661 184.13 450.689 183.868 450.744C183.605 450.794 183.385 450.873 183.208 450.979C183.03 451.084 182.894 451.218 182.801 451.378C182.708 451.535 182.662 451.719 182.662 451.931C182.662 452.146 182.71 452.343 182.808 452.521C182.905 452.699 183.051 452.84 183.246 452.946C183.444 453.048 183.688 453.099 183.976 453.099C184.335 453.099 184.653 453.022 184.928 452.87C185.203 452.718 185.421 452.532 185.582 452.312C185.747 452.091 185.835 451.878 185.848 451.67L186.35 452.235C186.32 452.413 186.24 452.61 186.108 452.826C185.977 453.042 185.802 453.249 185.582 453.448C185.366 453.642 185.108 453.805 184.807 453.937C184.511 454.063 184.177 454.127 183.804 454.127C183.339 454.127 182.93 454.036 182.579 453.854C182.232 453.672 181.961 453.429 181.767 453.124C181.576 452.815 181.481 452.47 181.481 452.089C181.481 451.721 181.553 451.397 181.697 451.118C181.841 450.835 182.048 450.6 182.319 450.414C182.59 450.223 182.916 450.079 183.296 449.982C183.677 449.885 184.103 449.836 184.572 449.836H185.937ZM190.031 447.132V454H188.851V447.132H190.031ZM188.762 445.31C188.762 445.12 188.819 444.959 188.933 444.828C189.052 444.696 189.225 444.631 189.454 444.631C189.678 444.631 189.849 444.696 189.968 444.828C190.09 444.959 190.152 445.12 190.152 445.31C190.152 445.492 190.09 445.649 189.968 445.78C189.849 445.907 189.678 445.97 189.454 445.97C189.225 445.97 189.052 445.907 188.933 445.78C188.819 445.649 188.762 445.492 188.762 445.31ZM193.192 444.25V454H192.012V444.25H193.192ZM199.077 452.178C199.077 452.009 199.039 451.852 198.962 451.708C198.89 451.56 198.74 451.427 198.512 451.309C198.287 451.186 197.949 451.08 197.496 450.991C197.115 450.911 196.77 450.816 196.461 450.706C196.157 450.596 195.896 450.462 195.681 450.306C195.469 450.149 195.306 449.965 195.192 449.753C195.078 449.542 195.021 449.294 195.021 449.011C195.021 448.74 195.08 448.484 195.198 448.243C195.321 448.001 195.492 447.788 195.712 447.602C195.937 447.415 196.205 447.269 196.519 447.164C196.832 447.058 197.181 447.005 197.566 447.005C198.116 447.005 198.586 447.102 198.975 447.297C199.364 447.492 199.663 447.752 199.87 448.078C200.077 448.399 200.181 448.757 200.181 449.15H199.007C199.007 448.96 198.95 448.776 198.835 448.598C198.725 448.416 198.562 448.266 198.347 448.147C198.135 448.029 197.875 447.97 197.566 447.97C197.24 447.97 196.976 448.021 196.772 448.122C196.574 448.219 196.428 448.344 196.334 448.497C196.246 448.649 196.201 448.81 196.201 448.979C196.201 449.106 196.222 449.22 196.265 449.322C196.311 449.419 196.392 449.51 196.506 449.595C196.62 449.675 196.781 449.751 196.988 449.823C197.196 449.895 197.46 449.967 197.782 450.039C198.345 450.166 198.808 450.318 199.172 450.496C199.536 450.674 199.807 450.892 199.984 451.15C200.162 451.408 200.251 451.721 200.251 452.089C200.251 452.39 200.188 452.665 200.061 452.915C199.938 453.164 199.758 453.38 199.521 453.562C199.288 453.74 199.009 453.879 198.683 453.981C198.361 454.078 198 454.127 197.598 454.127C196.993 454.127 196.48 454.019 196.062 453.803C195.643 453.587 195.325 453.308 195.109 452.965C194.894 452.623 194.786 452.261 194.786 451.88H195.966C195.983 452.201 196.076 452.458 196.246 452.648C196.415 452.834 196.622 452.967 196.868 453.048C197.113 453.124 197.356 453.162 197.598 453.162C197.919 453.162 198.188 453.12 198.404 453.035C198.624 452.951 198.791 452.834 198.905 452.686C199.02 452.538 199.077 452.369 199.077 452.178ZM206.726 448.871L208.109 447.887C208.376 447.705 208.581 447.523 208.725 447.341C208.873 447.155 208.947 446.901 208.947 446.58C208.947 446.33 208.85 446.104 208.655 445.9C208.461 445.693 208.186 445.589 207.83 445.589C207.585 445.589 207.377 445.646 207.208 445.761C207.039 445.875 206.912 446.027 206.827 446.218C206.743 446.404 206.7 446.609 206.7 446.833C206.7 447.024 206.747 447.221 206.84 447.424C206.933 447.627 207.062 447.839 207.227 448.059C207.392 448.279 207.58 448.511 207.792 448.757L212.166 454H210.756L207.17 449.709C206.853 449.337 206.569 448.996 206.319 448.687C206.07 448.374 205.873 448.071 205.729 447.779C205.589 447.487 205.52 447.185 205.52 446.872C205.52 446.389 205.615 445.983 205.805 445.653C206 445.319 206.271 445.065 206.618 444.891C206.965 444.718 207.371 444.631 207.836 444.631C208.289 444.631 208.679 444.722 209.004 444.904C209.334 445.082 209.588 445.319 209.766 445.615C209.944 445.907 210.033 446.228 210.033 446.58C210.033 446.876 209.98 447.142 209.874 447.379C209.768 447.612 209.62 447.826 209.43 448.021C209.243 448.215 209.026 448.406 208.776 448.592L206.941 449.957C206.637 450.181 206.415 450.395 206.275 450.598C206.135 450.801 206.044 450.981 206.002 451.137C205.964 451.294 205.945 451.419 205.945 451.512C205.945 451.812 206.01 452.087 206.142 452.337C206.273 452.587 206.472 452.788 206.738 452.94C207.009 453.088 207.348 453.162 207.754 453.162C208.109 453.162 208.454 453.082 208.789 452.921C209.127 452.756 209.43 452.523 209.696 452.223C209.963 451.918 210.174 451.556 210.331 451.137C210.492 450.714 210.572 450.246 210.572 449.734H211.626C211.626 450.153 211.586 450.549 211.505 450.921C211.425 451.294 211.3 451.641 211.131 451.962C210.966 452.28 210.754 452.57 210.496 452.832C210.458 452.87 210.428 452.915 210.407 452.965C210.386 453.016 210.356 453.061 210.318 453.099C210.001 453.441 209.61 453.7 209.144 453.873C208.683 454.042 208.219 454.127 207.754 454.127C207.14 454.127 206.609 454.015 206.161 453.791C205.716 453.566 205.374 453.257 205.132 452.864C204.891 452.47 204.771 452.02 204.771 451.512C204.771 451.122 204.853 450.78 205.018 450.483C205.187 450.187 205.418 449.91 205.71 449.652C206.006 449.394 206.345 449.133 206.726 448.871ZM222.087 451.061H223.306C223.242 451.645 223.075 452.168 222.804 452.629C222.533 453.09 222.15 453.456 221.655 453.727C221.16 453.994 220.542 454.127 219.802 454.127C219.26 454.127 218.767 454.025 218.323 453.822C217.883 453.619 217.504 453.331 217.187 452.959C216.869 452.582 216.624 452.132 216.45 451.607C216.281 451.078 216.196 450.49 216.196 449.842V448.922C216.196 448.274 216.281 447.688 216.45 447.164C216.624 446.635 216.871 446.182 217.193 445.805C217.519 445.429 217.91 445.139 218.367 444.936C218.824 444.732 219.338 444.631 219.91 444.631C220.608 444.631 221.198 444.762 221.681 445.024C222.163 445.287 222.538 445.651 222.804 446.116C223.075 446.577 223.242 447.113 223.306 447.722H222.087C222.028 447.291 221.918 446.92 221.757 446.611C221.596 446.298 221.368 446.057 221.071 445.888C220.775 445.718 220.388 445.634 219.91 445.634C219.499 445.634 219.137 445.712 218.824 445.869C218.515 446.025 218.255 446.247 218.043 446.535C217.836 446.823 217.68 447.168 217.574 447.57C217.468 447.972 217.415 448.418 217.415 448.909V449.842C217.415 450.295 217.462 450.72 217.555 451.118C217.652 451.516 217.798 451.865 217.993 452.166C218.187 452.466 218.435 452.703 218.735 452.876C219.036 453.046 219.391 453.13 219.802 453.13C220.322 453.13 220.737 453.048 221.046 452.883C221.355 452.718 221.588 452.481 221.744 452.172C221.905 451.863 222.019 451.493 222.087 451.061ZM226.073 444.25V454H224.893V444.25H226.073ZM232.008 452.826V449.29C232.008 449.019 231.953 448.784 231.843 448.585C231.737 448.382 231.577 448.226 231.361 448.116C231.145 448.006 230.878 447.951 230.561 447.951C230.265 447.951 230.005 448.001 229.78 448.103C229.56 448.205 229.387 448.338 229.26 448.503C229.137 448.668 229.076 448.846 229.076 449.036H227.901C227.901 448.791 227.965 448.547 228.092 448.306C228.219 448.065 228.401 447.847 228.638 447.652C228.879 447.453 229.167 447.297 229.501 447.183C229.84 447.064 230.216 447.005 230.631 447.005C231.13 447.005 231.57 447.09 231.951 447.259C232.336 447.428 232.637 447.684 232.853 448.027C233.073 448.365 233.183 448.791 233.183 449.303V452.502C233.183 452.73 233.202 452.974 233.24 453.232C233.282 453.49 233.343 453.712 233.424 453.898V454H232.199C232.139 453.865 232.093 453.685 232.059 453.46C232.025 453.232 232.008 453.02 232.008 452.826ZM232.211 449.836L232.224 450.661H231.037C230.703 450.661 230.404 450.689 230.142 450.744C229.88 450.794 229.66 450.873 229.482 450.979C229.304 451.084 229.169 451.218 229.076 451.378C228.983 451.535 228.936 451.719 228.936 451.931C228.936 452.146 228.985 452.343 229.082 452.521C229.179 452.699 229.325 452.84 229.52 452.946C229.719 453.048 229.962 453.099 230.25 453.099C230.61 453.099 230.927 453.022 231.202 452.87C231.477 452.718 231.695 452.532 231.856 452.312C232.021 452.091 232.11 451.878 232.123 451.67L232.624 452.235C232.594 452.413 232.514 452.61 232.383 452.826C232.252 453.042 232.076 453.249 231.856 453.448C231.64 453.642 231.382 453.805 231.082 453.937C230.785 454.063 230.451 454.127 230.079 454.127C229.613 454.127 229.205 454.036 228.854 453.854C228.507 453.672 228.236 453.429 228.041 453.124C227.851 452.815 227.755 452.47 227.755 452.089C227.755 451.721 227.827 451.397 227.971 451.118C228.115 450.835 228.322 450.6 228.593 450.414C228.864 450.223 229.19 450.079 229.571 449.982C229.952 449.885 230.377 449.836 230.847 449.836H232.211ZM236.306 447.132V454H235.125V447.132H236.306ZM235.036 445.31C235.036 445.12 235.093 444.959 235.208 444.828C235.326 444.696 235.5 444.631 235.728 444.631C235.952 444.631 236.124 444.696 236.242 444.828C236.365 444.959 236.426 445.12 236.426 445.31C236.426 445.492 236.365 445.649 236.242 445.78C236.124 445.907 235.952 445.97 235.728 445.97C235.5 445.97 235.326 445.907 235.208 445.78C235.093 445.649 235.036 445.492 235.036 445.31ZM239.359 448.497V454H238.178V447.132H239.295L239.359 448.497ZM239.118 450.306L238.572 450.287C238.576 449.817 238.637 449.383 238.756 448.985C238.874 448.583 239.05 448.234 239.283 447.938C239.515 447.642 239.805 447.413 240.152 447.252C240.499 447.087 240.901 447.005 241.358 447.005C241.68 447.005 241.976 447.051 242.247 447.145C242.518 447.233 242.753 447.375 242.952 447.57C243.151 447.764 243.305 448.014 243.415 448.319C243.525 448.624 243.58 448.992 243.58 449.423V454H242.406V449.48C242.406 449.121 242.344 448.833 242.222 448.617C242.103 448.401 241.934 448.245 241.714 448.147C241.494 448.046 241.236 447.995 240.939 447.995C240.592 447.995 240.303 448.056 240.07 448.179C239.837 448.302 239.651 448.471 239.511 448.687C239.372 448.903 239.27 449.15 239.207 449.43C239.147 449.705 239.118 449.997 239.118 450.306ZM243.567 449.658L242.78 449.899C242.785 449.523 242.846 449.161 242.964 448.814C243.087 448.467 243.263 448.158 243.491 447.887C243.724 447.616 244.01 447.403 244.348 447.246C244.687 447.085 245.074 447.005 245.51 447.005C245.878 447.005 246.204 447.054 246.487 447.151C246.775 447.248 247.016 447.398 247.211 447.602C247.41 447.8 247.56 448.056 247.662 448.37C247.763 448.683 247.814 449.055 247.814 449.487V454H246.633V449.474C246.633 449.089 246.572 448.791 246.449 448.579C246.331 448.363 246.161 448.213 245.941 448.128C245.726 448.04 245.467 447.995 245.167 447.995C244.909 447.995 244.68 448.04 244.481 448.128C244.283 448.217 244.115 448.34 243.98 448.497C243.845 448.649 243.741 448.825 243.669 449.023C243.601 449.222 243.567 449.434 243.567 449.658ZM253.59 452.178C253.59 452.009 253.552 451.852 253.476 451.708C253.404 451.56 253.254 451.427 253.025 451.309C252.801 451.186 252.463 451.08 252.01 450.991C251.629 450.911 251.284 450.816 250.975 450.706C250.67 450.596 250.41 450.462 250.194 450.306C249.983 450.149 249.82 449.965 249.706 449.753C249.591 449.542 249.534 449.294 249.534 449.011C249.534 448.74 249.593 448.484 249.712 448.243C249.835 448.001 250.006 447.788 250.226 447.602C250.45 447.415 250.719 447.269 251.032 447.164C251.345 447.058 251.694 447.005 252.08 447.005C252.63 447.005 253.099 447.102 253.489 447.297C253.878 447.492 254.176 447.752 254.384 448.078C254.591 448.399 254.695 448.757 254.695 449.15H253.521C253.521 448.96 253.463 448.776 253.349 448.598C253.239 448.416 253.076 448.266 252.86 448.147C252.649 448.029 252.389 447.97 252.08 447.97C251.754 447.97 251.489 448.021 251.286 448.122C251.087 448.219 250.941 448.344 250.848 448.497C250.759 448.649 250.715 448.81 250.715 448.979C250.715 449.106 250.736 449.22 250.778 449.322C250.825 449.419 250.905 449.51 251.02 449.595C251.134 449.675 251.295 449.751 251.502 449.823C251.709 449.895 251.974 449.967 252.295 450.039C252.858 450.166 253.322 450.318 253.686 450.496C254.049 450.674 254.32 450.892 254.498 451.15C254.676 451.408 254.765 451.721 254.765 452.089C254.765 452.39 254.701 452.665 254.574 452.915C254.451 453.164 254.272 453.38 254.035 453.562C253.802 453.74 253.523 453.879 253.197 453.981C252.875 454.078 252.513 454.127 252.111 454.127C251.506 454.127 250.994 454.019 250.575 453.803C250.156 453.587 249.839 453.308 249.623 452.965C249.407 452.623 249.299 452.261 249.299 451.88H250.48C250.497 452.201 250.59 452.458 250.759 452.648C250.929 452.834 251.136 452.967 251.381 453.048C251.627 453.124 251.87 453.162 252.111 453.162C252.433 453.162 252.702 453.12 252.917 453.035C253.138 452.951 253.305 452.834 253.419 452.686C253.533 452.538 253.59 452.369 253.59 452.178Z" fill="#414042"></path>
</g>
<defs>
<filter id="filter0_f_9991_56944" x="138" y="144" width="244" height="244" filterUnits="userSpaceOnUse" color-interpolation-filters="sRGB">
<feFlood flood-opacity="0" result="BackgroundImageFix"></feFlood>
<feBlend mode="normal" in="SourceGraphic" in2="BackgroundImageFix" result="shape"></feBlend>
<feGaussianBlur stdDeviation="18" result="effect1_foregroundBlur_9991_56944"></feGaussianBlur>
</filter>
<filter id="filter1_f_9991_56944" x="148" y="22" width="138" height="50" filterUnits="userSpaceOnUse" color-interpolation-filters="sRGB">
<feFlood flood-opacity="0" result="BackgroundImageFix"></feFlood>
<feBlend mode="normal" in="SourceGraphic" in2="BackgroundImageFix" result="shape"></feBlend>
<feGaussianBlur stdDeviation="4" result="effect1_foregroundBlur_9991_56944"></feGaussianBlur>
</filter>
<filter id="filter2_f_9991_56944" x="344" y="81" width="90" height="50" filterUnits="userSpaceOnUse" color-interpolation-filters="sRGB">
<feFlood flood-opacity="0" result="BackgroundImageFix"></feFlood>
<feBlend mode="normal" in="SourceGraphic" in2="BackgroundImageFix" result="shape"></feBlend>
<feGaussianBlur stdDeviation="4" result="effect1_foregroundBlur_9991_56944"></feGaussianBlur>
</filter>
<filter id="filter3_f_9991_56944" x="7" y="132" width="128" height="50" filterUnits="userSpaceOnUse" color-interpolation-filters="sRGB">
<feFlood flood-opacity="0" result="BackgroundImageFix"></feFlood>
<feBlend mode="normal" in="SourceGraphic" in2="BackgroundImageFix" result="shape"></feBlend>
<feGaussianBlur stdDeviation="4" result="effect1_foregroundBlur_9991_56944"></feGaussianBlur>
</filter>
<filter id="filter4_f_9991_56944" x="392" y="246" width="132" height="50" filterUnits="userSpaceOnUse" color-interpolation-filters="sRGB">
<feFlood flood-opacity="0" result="BackgroundImageFix"></feFlood>
<feBlend mode="normal" in="SourceGraphic" in2="BackgroundImageFix" result="shape"></feBlend>
<feGaussianBlur stdDeviation="4" result="effect1_foregroundBlur_9991_56944"></feGaussianBlur>
</filter>
<filter id="filter5_f_9991_56944" x="-5" y="308" width="132" height="50" filterUnits="userSpaceOnUse" color-interpolation-filters="sRGB">
<feFlood flood-opacity="0" result="BackgroundImageFix"></feFlood>
<feBlend mode="normal" in="SourceGraphic" in2="BackgroundImageFix" result="shape"></feBlend>
<feGaussianBlur stdDeviation="4" result="effect1_foregroundBlur_9991_56944"></feGaussianBlur>
</filter>
<filter id="filter6_f_9991_56944" x="304" y="399" width="134" height="50" filterUnits="userSpaceOnUse" color-interpolation-filters="sRGB">
<feFlood flood-opacity="0" result="BackgroundImageFix"></feFlood>
<feBlend mode="normal" in="SourceGraphic" in2="BackgroundImageFix" result="shape"></feBlend>
<feGaussianBlur stdDeviation="4" result="effect1_foregroundBlur_9991_56944"></feGaussianBlur>
</filter>
<filter id="filter7_f_9991_56944" x="118" y="428" width="154" height="50" filterUnits="userSpaceOnUse" color-interpolation-filters="sRGB">
<feFlood flood-opacity="0" result="BackgroundImageFix"></feFlood>
<feBlend mode="normal" in="SourceGraphic" in2="BackgroundImageFix" result="shape"></feBlend>
<feGaussianBlur stdDeviation="4" result="effect1_foregroundBlur_9991_56944"></feGaussianBlur>
</filter>
<radialGradient id="paint0_radial_9991_56944" cx="0" cy="0" r="1" gradientUnits="userSpaceOnUse" gradientTransform="translate(260 260) scale(132)">
<stop offset="0.62" stop-color="#A47ACD" stop-opacity="0"></stop>
<stop offset="0.9" stop-color="#A47ACD" stop-opacity="0.22"></stop>
<stop offset="1" stop-color="#A47ACD" stop-opacity="0"></stop>
</radialGradient>
<radialGradient id="paint1_radial_9991_56944" cx="0" cy="0" r="1" gradientUnits="userSpaceOnUse" gradientTransform="translate(238.16 225.68) scale(134.16)">
<stop stop-color="#7B3FA8"></stop>
<stop offset="0.52" stop-color="#4B0082"></stop>
<stop offset="1" stop-color="#2B0049"></stop>
</radialGradient>
<clipPath id="clip0_9991_56944">
<rect width="520" height="520" fill="white"></rect>
</clipPath>
</defs>
</svg>